<?xml version="1.0" encoding="UTF-8"?>
<!-- Generator: Adobe Illustrator 22.0.1, SVG Export Plug-In . SVG Version: 6.00 Build 0)  -->
<svg version="1.1" id="logo-color" xmlns="http://www.w3.org/2000/svg" xmlns:xlink="http://www.w3.org/1999/xlink" x="0px" y="0px" viewBox="0 0 530.6 192.8" style="enable-background:new 0 0 530.6 192.8;" xml:space="preserve">
<style type="text/css">
	.st0{fill:#68813C;}
</style>
<g id="logo-group">
	<g id="group-forest">
		<g>
			<g>
				<path class="st0" d="M155.4,40.1c-1.8,0.6-7.3,1-9.8,1.1c-0.7,0-1.2,0.1-1.2,0.1l0,0c-2.5,0-2.4,2.1-2.4,5.2      c0,3.4-2.1,6.9-2.9,10.4c-0.8,3.6-0.8,2.4-1.1,4.8c-0.1,0.7,0,1,0.2,1.1c0.3,0.2,0.6,0,0.8-0.5l0.2-0.5c1.4-3,2.6-7,3.7-9.1      c1.3-2.5,0.5-1.4,1.6-3.2c0.5-0.8,0.6-1.3,1.7-0.8c1.1,0.6,1.4,1.8,1.3,3.2l-0.1,0.6c0,0-0.2,0.9-0.4,2      c-0.1,0.6-0.3,1.2-0.4,1.7c-0.1,0.6-0.2,1.2-0.3,1.7c-0.3,1.7-0.6,3.5,0.5,3.8c0.8,0.2,1.1-1.1,1.5-2.2c0-0.1,0.1-0.3,0.1-0.5      c0.1-0.3,0.2-0.5,0.2-0.5s1.1-3.5,2.1-5.5c1.1-2,3.4-1.3,5.1-1c1.5,0.2,2.2,1.8,1.9,3.3c-0.2,1.2-0.5,2.7-0.6,4.5      c-0.1,1.8-1.4,8.4-1.7,11.2c-0.3,2.8-0.4,4.4,0.3,4.2c0.4-0.1,0.4-0.3,0.7-1.4c0.3-1,1.5-5.2,2.2-7.7c0.7-2.5,0.6-3.8,1.3-6.4      c1.4-5,2.1-4,2.1-4s0.5,0.2,1.6,1.7c0.7,1,0.1,5.3-0.3,7.1c-1,4.2-1.3,7.5-1.5,9.2c0,0.4-0.6,5.6-0.2,5.9      c0.7,0.5,1.2-2.8,1.2-2.8c0.8-4.4,4.6-14.4,4.6-14.4c3.5,4.2,1.3,20,0.3,27.3c-2.4,0.9-4.4,1.6-4.4,1.6c-1.7,0.5-5,1.4-6.5,1.7      c-1.5,0.3-2.5,1.4-3.2,2.2c-0.7,0.8-1.3,1.7-2.4,3.2c-1.1,1.5-2.3,2-2.9,2.6c-0.6,0.7-1.8,1.7-1.8,1.7c-1.2,0.9-1.9,1.4-2.3,1.8      l0,0c-3.3,3.4-5.3,10.7-5.9,12.9c0,0-0.4,1.4-0.4,1.6c-0.1,0.5-0.4,1.1-0.1,1.2c0.2,0.1,0.8-0.5,1-0.8c-0.1,0.2,1-1.7,1-1.7      c0.6-1.1,0.1-0.3,0.6-1.2c1.3-2.7,3-7.5,8.9-11.6c3-2.1,5.6-5.8,8.2-7c5.3-2.6,10.8-3,14.9-4.3c0.6-0.2,1.3-0.4,1.9-0.6      c0,0,0,0,0,0c1.4-0.5,3.1-0.9,4.8-1.4c1.8-0.5,3.6-0.8,4.9-0.9c1.4-0.1,2.3,0.1,2.3,0.1s-0.9,0.4-2.1,0.8      c-0.1,0.1-0.2,0.1-0.3,0.2c-1.7,1-3.3,1.8-4.7,2.6c0,0,0,0,0,0c0,0,0,0,0,0c-0.2,0.1-0.4,0.2-0.6,0.3c-0.3,0.2-5,1.7-5.6,1.9      c-0.7,0.2-1.9,1.1-2.5,1.5c-0.5,0.4-0.8,0.9-1.9,1.7c-0.3,0.2-0.5,0.3-0.6,0.4c-0.4,0.3-1,0.7-0.8,0.9c0.1,0.2,0.8-0.1,1.1-0.2      c0.6-0.2,1.8-0.3,1.9-0.3c0.6,0,1.2-0.1,1.8-0.1l0,0c0,0,1.8-0.1,2.6-0.1c0.6-0.1,1.2-0.1,1.9-0.2c0.7,0,1.4,0,1.9,0.1      c0.5,0.1,0.9,0.2,0.9,0.2s-0.3,0.1-0.9,0.1c-0.5,0.1-1.3,0.2-2.1,0.5c-0.5,0.2-1.3,0.5-1.9,0.8c-1.8,0.9-3.5,2.1-5.1,3.2      c-2.7,1.9-2.7,1.9-4.3,4c-0.7,0.9-0.7,0.7-3.7,3.4c-1.1,1-1.2,1.4-3,2.8c-0.8,1-1.9,2.3-1.9,2.3s-0.4,0.6-1.6,1.7      c-1.8,1.7-0.9,0.6-3.2,3.2c-2.3,2.7-1.3,1.4-3.8,6.1c-1,1.9-1.6,3.7-1.9,5.1l-0.1,0.3c0,0-0.4,1.6-0.5,1.9      c-0.1,0.5-0.3,1.2,0,1.3c0.2,0,0.8-0.6,0.9-0.8c0.2-0.4,1.2-1.5,1.2-1.5c1.8-1.8,4.4-4.3,6.7-6.6c4.1-4.2,6.1-5.2,7.4-6.4      c4.2-3.5,10.9-7.9,15.2-10.3c4.3-2.4,6.8-1.3,11.9-3.6c1-0.5,5.2-0.7,8.3-1.1c0.6-4.4,0.9-8.9,0.9-13.4c0-3.4-0.2-6.8-0.5-10.1      c-1.8-0.1-3.9-0.1-6.1,0c-1.3,0.1-3,0.4-4.9,0.8c-0.4-1.9-0.9-3.9-1.2-4.8c-0.6-1.7-0.7-2.6-0.1-2.9c0.6-0.3,1,0.4,2.1,1.9      c1.1,1.5,1.8,2,2.6,1.8c1.1-0.4-0.8-4.1-1.1-4.9c-1.1-2.1-2-4.2-3.4-6.5c-6.6-10.5-9.1-11.9-9.1-11.9s-2.8-2.5-8.1-6      c-6.1-4-11.1-4.2-13-4.5c-1.9-0.3-7.4-1.4-7.5-1.8c-0.1-0.4,8.2-0.5,10-0.7c1.7-0.2,11.1-3.6,24.7,4.3c2.3,1.1,4.3,2.1,6,2.9      c-1.3-2.6-2.7-5.2-4.2-7.7c-4.7-1.4-12.9-3.7-15.2-4.5C165,37.7,157.8,39.3,155.4,40.1z M174.4,76.9c0.8-3.6,1.4-7.1,1.4-7.1      s0.3-1,0.7,0c0.3,1,1.2,1.3,1.7,3.4c0.4,2.1,2,3.6,1.4,4.8c-0.5,1.3-0.7,3.4-0.7,5c0,0.6,0.2,1.9,0.3,3.2c-2,0.5-3.8,1-4.9,1.3      c-0.6,0.2-1.3,0.4-2.1,0.6C172.9,84.2,173.9,78.9,174.4,76.9z"/>
			</g>
			<g>
				<path class="st0" d="M107.4,186.3c0-0.1,0-0.2-0.1-0.3c-0.2-0.9-0.6-1.7-0.8-2.5c-0.1-0.9-0.3-1.8-0.4-2.6      c-0.2-1.7-0.5-2.1-0.7-3.7c-0.1-0.4-0.1-0.7-0.2-1.1c-0.1-0.5-0.6-3.5-0.7-4c0-0.2-0.1-0.4-0.1-0.5c0,0,0,0,0,0l0,0      c-0.1,0.2-0.1,0.5-0.1,0.8c0,1,0.1,2,0.1,3.1c0.1,1.1,0.1,2.3,0.1,3.4c0,1.6,0.1,3.1,0.1,4.7c0,1-0.1,2-0.1,2.9      c0,0.5,0,1.1,0.1,1.6c0,0.3,0,0.7,0,1c0,0.3,0,0.6,0,0.9c0,0.4,0,0.8,0,1.1c1.5-0.1,3.1-0.2,4.6-0.3c-0.2-0.6-0.5-1.1-0.8-1.6      C107.8,188,107.5,186.8,107.4,186.3z"/>
			</g>
			<g>
				<path class="st0" d="M15.9,76.6c3.5-0.1,4.2,0.7,7.3,0.7c1.2,0,4.7,0.3,6.8,0.8c1.5,0.5,3,1,3.2,1c0.3,0.1,0.9,0.2,1,0.1      c0.2-0.3-0.8-0.7-1.2-1c-0.2-0.1-1.6-0.9-1.6-0.9l0,0c-5.2-3.1-15.1-4.5-19.3-5.9c-1.6-0.6-3.5-1.7-5.3-3      C6,71.2,5.4,74.1,4.9,77C8.9,77.2,13.4,76.7,15.9,76.6z"/>
			</g>
			<path class="st0" d="M97.5,174.7c0,0,0.1-1.5,0.1-0.8l0.7-10.8l1.7-26.1L99.7,191c0.4,0,0.7,0,1.1,0c0.4,0,0.7,0,1.1,0l0.2-62.5     l1.2,25.5l0.1,1.9l0,0.4l0-0.1c0,0.6,0.2,5.3,0.2,5.8c0,0.2,0.1,0.4,0.1,0.6c0,0,0,0,0,0c0,0,0,0,0,0c0.1-0.2,0.1-0.6,0.2-0.9     c0-0.5,0-1.1,0-1.7l0-0.5v-37.1c1.1,0,1.2-0.4,1.2-0.9c-0.1-0.6,0.3-0.2,1-0.4c0,0,0.1,0,0.1,0c0.3,9.1,1.4,36,2.1,53.5     c0.3,2.5,1.5,11.1,3.7,14c0.4,0.6,0.8,1.1,1.1,1.7c41.4-5.2,74.6-36.3,83-76.6c-0.7,0.1-1.6,0.2-2.5,0.3c-15.3,2.1-17.5,4-18,4.8     c-0.6,0.7-2.4,3.3-5,4.6c-2.5,1.3-9.6,6.3-11.6,7.3c-2,1-1.2,3.8-5.8,7.5c-1.9,1.6-3.3,3.6-4.1,5.3c0,0,0,0,0,0     c-0.1,0-0.2-0.1-0.3,0c0,0,0,0,0,0l0,0c0,0,0,0,0,0c0,0,0,0,0.1-0.1c0,0,0,0,0-0.1c0,0,0,0,0.1,0c0.1,0,0.2-0.1,0.2-0.2     c0,0,0-0.1,0-0.1c0,0,0,0,0,0c0,0,0,0-0.1,0c0,0,0,0,0,0c0,0-0.1,0-0.1,0l0,0l0,0c0,0,0,0,0,0c0,0,0.1-0.1,0.1-0.1     c0,0,0-0.1,0-0.1c0,0,0,0,0,0c0,0,0,0,0,0.1c0,0,0,0,0,0c0,0,0,0-0.1,0c0,0,0,0,0,0c0,0,0,0,0,0c0-0.1,0.1-0.1,0-0.2     c0,0,0,0-0.1,0c0,0,0,0,0,0c0,0,0,0,0,0.1c0,0,0-0.1,0-0.1l0,0c0-0.1,0-0.1,0-0.2c0,0,0,0,0-0.1c0,0,0-0.1-0.1-0.1l-0.1,0.1     c0,0,0-0.1,0-0.2c0,0,0,0,0,0c0,0,0,0,0,0c0,0,0,0,0-0.1c0,0,0,0-0.1,0c0,0,0,0,0,0c0,0,0-0.1,0-0.1c0,0,0,0,0,0c0,0,0,0,0,0v0     l0,0c0,0,0-0.1,0-0.2c0-0.1,0-0.1-0.1-0.1c0,0,0,0,0,0l0,0c0,0-0.1,0.1-0.2,0.1c0,0,0,0,0-0.1c0,0,0-0.1,0-0.1l0,0c0,0,0,0,0,0     c0,0,0,0-0.1,0.1l0,0c0,0,0,0,0,0s0,0-0.1,0l0,0c0,0,0,0,0,0c0,0,0-0.1-0.1-0.1c0,0,0,0-0.1,0h0l0,0c0-0.1,0.1-0.1,0-0.2     c0,0,0,0,0,0c0,0,0,0-0.1,0.1c0,0,0,0,0,0c0,0,0,0,0-0.1c0,0,0-0.1,0-0.1c0,0,0-0.1,0-0.1c0,0,0,0-0.1,0l0,0c0,0,0,0,0,0     c0-0.1,0-0.1,0-0.2c0,0,0-0.1,0-0.1c0-0.1,0-0.1,0-0.2c0,0,0,0-0.1,0c0,0,0,0,0,0c0,0,0,0,0,0c0-0.1,0.1,0.1,0,0c0,0,0-0.1,0-0.1     c0,0,0,0,0,0c0,0-0.1-0.1-0.1-0.1c0,0,0,0.1,0,0.1l0,0c0-0.1,0-0.1,0-0.2c0,0,0,0,0-0.1c0,0,0-0.1-0.1-0.1l-0.1,0.1     c0,0,0-0.1,0-0.2c0,0,0,0-0.1,0c-0.1,0-0.1,0.1-0.1,0.1c0,0.2,0,0.2,0,0.2c0,0-0.1,0.1-0.2,0.2c0,0.1,0,0.2,0,0.3     c0,0,0,0.1,0,0.1c0,0,0,0,0,0c0,0-0.1,0-0.1,0.1c0,0,0,0.1,0,0.1h0c0,0,0,0,0,0c-0.1,0-0.1,0-0.1,0.1c0,0,0,0,0,0h0c0,0,0,0,0,0     c0,0,0,0.1,0,0.1c0,0,0,0,0,0h0c0,0-0.1,0-0.2,0.1c0,0,0,0.1,0,0.2c0,0,0.1,0.1,0.1,0.1c0.1,0.1,0.1,0.1,0.1,0.1c0,0,0,0,0,0     c-0.1,0-0.1,0-0.1-0.1c0,0-0.1-0.1-0.1-0.1c0,0-0.1,0-0.1,0.1c-0.1,0-0.1,0-0.1,0c0,0.1,0,0.1,0,0.2c0,0,0,0,0,0c0,0,0,0-0.1,0.1     l0,0c0,0,0,0.1,0,0.1c0,0-0.1,0.1-0.1,0.1c-0.1,0-0.1,0.4,0,0.4c0,0,0.1,0,0.1,0.1c0,0,0,0.1,0.1,0.1c0,0,0,0,0,0c0,0,0,0,0,0.1     l-0.1-0.1c0,0-0.1,0-0.1,0c0,0.1,0.1,0.1,0,0.1c0,0-0.1,0-0.1,0c-0.1,0-0.1-0.1-0.1-0.1c0,0-0.1,0-0.1,0c0,0,0,0.1-0.1,0.1     c0,0-0.1,0-0.1,0c0,0,0,0.1-0.1,0.1c0,0-0.1,0-0.1,0.1c0,0,0,0.1,0.1,0.1c0,0,0,0.1,0,0.1c0,0,0,0.1,0,0.1c0,0,0.1-0.1,0.1-0.1h0     c0,0,0,0.1,0,0.1c0.1,0,0.1,0,0.2,0c0,0,0,0,0,0c0,0,0,0.1,0,0.1l0,0c-0.1-0.1-0.2-0.1-0.2,0c0,0.2-0.1,0.4-0.3,0.4     c-0.1,0-0.1,0.4,0,0.5c0,0,0,0,0,0c0,0,0,0,0,0c0,0-0.1,0-0.1,0c0,0,0,0.1-0.1,0.1c0,0-0.1,0-0.1,0.1c0,0,0,0.1,0.1,0.1     c0,0,0,0,0,0.1c0,0,0,0-0.1,0.1c-0.1,0-0.3-0.1-0.3,0.1c0,0.2,0.1,0.3,0.2,0.3c0,0,0,0.1,0,0c0,0-0.1,0-0.1,0c0,0,0,0.1-0.1,0.1     c0,0-0.1,0-0.1,0.1c0,0,0,0.1,0.1,0.1c0,0,0,0.1,0,0.1c0,0,0,0,0,0c0,0,0,0,0,0c-0.1,0-0.2,0-0.2,0.1c0,0.1-0.1,0.1-0.2,0     c0,0,0,0,0,0c0,0,0,0,0,0c0-0.1,0.1-0.2,0.1-0.3c0.1-0.3-0.3-0.3-0.3-0.5c0-0.1,0.4,0,0.4-0.1c0-0.1,0.1-0.3-0.1-0.4     c-0.2,0-0.3-0.1-0.3-0.3c0-0.1,0-0.3,0-0.4c0.1,0,0.3-0.1,0.3-0.3c0-0.1,0-0.1,0-0.2c0,0,0,0-0.1,0c0,0-0.1,0-0.1,0.1     c0,0,0,0.1-0.1,0.1c-0.1,0-0.1,0-0.2,0.1l0,0c0,0,0,0,0,0s0,0,0,0c0.1,0,0.1-0.1,0.1-0.2c0-0.1,0-0.1-0.1-0.2c0,0,0-0.1-0.1-0.1     c0,0-0.1,0.1-0.1,0.1l0,0c0,0,0,0-0.1,0c0,0-0.1,0-0.1,0.1c0,0,0,0,0,0c-0.1-0.1-0.3-0.2-0.3-0.3c0-0.1,0.4,0,0.4-0.1     c0-0.1,0.1-0.3-0.1-0.4c-0.2,0-0.3-0.1-0.3-0.3c0-0.2,0-0.5-0.1-0.5c-0.1,0-0.1,0-0.2,0c0,0,0,0,0,0c0.1-0.1,0.1-0.1,0.1-0.1     c0,0,0-0.1,0-0.1c0,0,0,0,0-0.1c0,0,0,0,0,0l0,0c0,0,0.1-0.1,0-0.3c0-0.1-0.1-0.1-0.1-0.2c0,0-0.1,0-0.1,0.1l0,0     c-0.1,0.1-0.2,0.1-0.3,0.2c0,0,0-0.1,0.1-0.1c0-0.1,0-0.2,0-0.2l0,0c0,0,0-0.1-0.1-0.1c0,0-0.1,0-0.1,0.1l0,0c0,0,0,0,0,0     s0,0-0.1-0.1l0,0c0,0,0,0,0-0.1c0,0,0,0,0,0c0,0,0,0,0,0c0-0.1-0.1-0.2-0.1-0.2c0-0.1,0-0.1,0-0.2c0,0,0-0.1-0.1-0.1     c0,0-0.1,0-0.1,0.1c0,0,0-0.1,0.1-0.2c0.1-0.1,0.2-0.3,0.2-0.5c0-0.1-0.1-0.2-0.2-0.3c0-0.1,0,0-0.1-0.1c0,0-0.1,0-0.1,0     c0,0,0,0,0,0c0,0,0,0,0,0c0-0.1,0.1-0.1,0-0.3c0,0,0-0.1-0.1-0.1c0,0,0,0-0.1,0.1c0,0,0,0,0,0c0,0,0,0,0,0c0,0,0,0,0,0l0,0     c0.1-0.2,0,0-0.1-0.1c0,0,0-0.3,0-0.3c0-0.1-0.1-0.1-0.1-0.1c0,0-0.1,0.2-0.1,0.2c0-0.1,0-0.1,0-0.2c0,0-0.1,0-0.1,0     c-0.1,0-0.2,0.1-0.2,0.1c0,0.4-0.2,0.1-0.2,0.4c-0.1-0.1,0,0.2,0,0.3c0,0,0,0,0,0.1c0,0,0,0-0.1,0c-0.2,0-0.2,0.1-0.2,0.2     c0,0.1-0.2,0.1-0.3,0.1c-0.1,0,0,0.5,0,0.5l0,0.1c0,0-0.1,0-0.1,0c0,0,0,0.1,0,0.2c0,0,0,0.1,0,0.1c0,0,0,0,0,0     c-0.1,0-0.2,0-0.3,0.1c0,0.1,0,0.2,0.1,0.3c0,0.1,0.1,0.1,0.1,0.2c0.1,0.2,0.1,0.2,0.1,0.2c0,0,0,0-0.1,0c-0.1,0-0.1,0-0.2-0.1     c0-0.1-0.1-0.1-0.1-0.1c-0.1,0-0.2,0-0.2,0.3c0,0.1-0.1,0.2-0.1,0.3l0,0c0,0,0,0,0,0c-0.1,0-0.1-0.1-0.1-0.1     c-0.1,0-0.1,0.1-0.1,0.1l0,0c0,0.1,0,0.2,0.1,0.2l0,0c0,0-0.1,0-0.1,0c0,0,0,0,0,0c-0.1,0-0.1,0.1-0.2,0.1c0,0.1-0.1,0.1-0.1,0.1     l-0.1,0c-0.1-0.1-0.2-0.1-0.3,0c-0.1,0.1,0,0.2,0,0.2c0,0,0.1,0.1,0.1,0.2c0.1,0.2,0.1,0.3,0.2,0.3c0.1,0,0.1,0,0.2,0.2     c0,0.1,0.1,0.1,0.1,0.1c0,0.1,0,0.1,0,0.2c0,0,0,0,0,0.1c0,0,0,0,0,0s0,0-0.1,0c0,0-0.1,0-0.1,0c-0.1,0-0.1,0-0.2,0.1     c0,0,0,0,0,0c0,0,0,0,0,0c0,0-0.1-0.1-0.1-0.1c0,0-0.1,0.1-0.1,0.1c0,0.1,0,0.1,0.1,0.2c0,0,0,0,0,0c-0.1,0-0.1-0.1-0.2-0.1     c0,0,0,0,0-0.1c0,0,0,0,0,0c0,0,0,0-0.1,0c0,0,0,0.1,0,0.1c0,0.1,0,0.1,0.1,0.2c0,0-0.1,0-0.1,0c0,0-0.1-0.1-0.1,0c0,0,0,0-0.1,0     c-0.1,0-0.2,0-0.3,0.1c0,0.1,0,0.2,0.1,0.3c0,0,0,0,0.1,0.1l0,0c0,0,0,0.1,0,0.1l0,0c0,0,0,0,0,0c0,0-0.1,0-0.1,0.1     c0,0.1,0,0.2,0,0.2c0,0.1,0,0.1,0.1,0.1c0,0,0.1,0.1,0.2,0.1c0,0,0,0-0.1,0.1l0,0c0,0.1-0.1,0.1,0,0.2c0,0.1,0,0.1,0.1,0.1     c0,0,0.1,0.1,0.1,0.1c0,0,0,0-0.1,0c0,0,0,0,0,0c0,0,0,0,0,0c0,0-0.1-0.1-0.1-0.1c0,0-0.1,0.1-0.1,0.1c0,0.1,0,0.1,0.1,0.2     c0,0,0,0,0,0c0,0,0,0,0,0c-0.1,0-0.1-0.1-0.2-0.1c0,0,0,0,0-0.1c0,0,0,0,0,0c0,0,0,0-0.1,0c0,0,0,0.1,0,0.1c0,0.1,0,0.1,0.1,0.2     c0,0-0.1,0-0.1,0c0,0-0.1-0.1-0.1,0c0,0,0,0-0.1,0c-0.1,0-0.2,0-0.3,0.1c0,0.1,0,0.2,0.1,0.3c0,0,0,0,0.1,0.1l0,0     c0,0,0,0.1,0,0.1l0,0c0,0,0,0,0,0c0,0-0.1,0-0.1,0.1c0,0.1,0,0.2,0,0.2c0,0.1,0,0.1,0.1,0.1c0,0,0.1,0.1,0.2,0.1c0,0,0,0-0.1,0.1     l0,0c0,0.1-0.1,0.1,0,0.2c0,0.1,0,0.1,0.1,0.1c0,0,0.1,0.1,0.1,0.1c0,0,0,0,0,0c-0.2,0-0.3,0-0.3,0.3c0,0.2,0.1,0.2,0.2,0.3     c0,0.1,0,0.1-0.1,0.1c0,0,0,0,0,0c0,0-0.1,0-0.1,0.1c-0.1,0.1-0.1,0.1-0.2,0.1h0c0,0-0.1,0-0.1,0c0,0-0.1,0-0.1,0     c-0.1,0-0.1,0.1-0.2,0.2c0,0.1,0,0.1,0,0.1c0,0,0.1,0.1,0.1,0.1l0,0h0l0,0c0,0.1,0,0.2,0,0.3c0,0.1,0.1,0.1,0.2,0.1c0,0,0,0,0,0     c0,0,0,0,0,0.1c0,0.1-0.2,0.1-0.2,0.1c-0.1,0-0.1,0-0.1,0.1c0,0,0,0.1,0,0.1c0,0.1,0.2,0,0.3,0c0,0,0,0,0,0l0.1,0l0,0     c0,0.1,0,0.1-0.1,0.2c0,0,0,0-0.1,0c-0.1,0.1-0.1,0.1-0.1,0.2c0,0,0,0.1,0,0.1c0,0,0.1,0,0.1,0c0,0,0,0,0.1,0c0,0,0,0,0,0     c0,0,0,0,0,0c0,0,0,0,0,0.1c0,0,0,0.1,0,0.1c0,0,0,0,0,0c0,0,0,0,0.1,0l0,0c0,0,0,0,0,0c0,0,0,0,0,0c0,0-0.1,0-0.1,0     c0,0-0.1,0-0.1,0c0,0-0.1,0-0.1,0c0,0,0,0,0,0c0,0-0.1,0-0.1,0.1c0,0.1,0,0.2,0.1,0.2c0,0,0,0,0,0.1c0,0,0,0,0,0s0,0-0.1,0     c0,0-0.1,0-0.1,0c-0.1,0-0.2,0-0.2,0.1c0,0,0,0,0,0c0,0-0.1,0-0.1,0c0,0-0.1-0.1-0.1,0c0,0,0,0,0,0c0,0,0,0,0,0c0,0,0,0,0,0     c0,0,0,0,0,0s0,0,0,0c0,0,0,0,0,0c0,0,0.1,0,0.1-0.1c0,0,0,0,0-0.1c0-0.1,0-0.1-0.1-0.1c0,0,0,0,0,0l0,0c0,0-0.1,0.1-0.2,0l0,0     c0,0,0,0,0,0l0,0l0,0c0,0,0.1-0.1,0.1-0.1c0-0.1,0-0.1,0-0.1c0,0,0,0,0,0l0,0c0,0,0,0-0.1,0c0,0-0.1,0-0.1,0c0,0,0,0,0,0s0,0,0,0     c0,0,0.1-0.1,0.1-0.1c0,0,0-0.1,0-0.1c0,0,0-0.1-0.1-0.1c0,0,0,0,0,0c0,0,0,0,0,0c0,0-0.1,0-0.1,0c0,0-0.1,0-0.1,0     c-0.1-0.1-0.1-0.1-0.2,0l0,0c0,0,0,0-0.1,0c0,0,0,0-0.1,0l0,0c0,0,0.1,0,0.1-0.1c0.1,0,0.1-0.1,0.1-0.2c0,0,0,0,0-0.1     c0,0,0,0,0,0c0,0,0,0-0.1,0c-0.1,0-0.1,0-0.2,0c-0.1,0-0.1,0-0.1-0.1c0,0,0,0,0,0c0,0,0,0,0.1,0l0,0c0,0,0.1,0,0.1,0     c0.1,0,0.3-0.1,0.3-0.2c0,0,0-0.1,0-0.1c0,0,0-0.1,0-0.1c0,0,0,0,0,0c0,0,0,0-0.1,0.1c-0.1,0-0.1,0-0.2,0l0,0c0,0,0.1,0,0.1,0     c0.1,0,0.2,0,0.2-0.1c0,0,0-0.1,0-0.1l0,0c0,0,0,0,0,0c0,0,0.1,0,0.1,0c0.1,0,0.1-0.1,0.1-0.1c0,0,0-0.1,0-0.1c0,0,0,0,0-0.1     c0,0,0,0,0-0.1c0,0,0-0.1,0-0.1c0-0.1-0.1-0.1-0.1-0.1c0,0-0.1,0-0.1,0.1c0,0,0,0,0,0s0,0,0-0.1c0-0.1,0-0.1,0-0.2c0,0,0,0-0.1,0     c0,0,0,0,0,0c0,0,0,0,0,0c-0.1-0.1-0.1-0.1-0.1-0.1l0,0c-0.1,0-0.1-0.1-0.2-0.1c0,0,0,0,0,0c0,0,0,0,0.1-0.1     c0.1-0.1,0.1-0.1,0.1-0.1c0.1,0,0.1-0.1,0.2-0.3c0-0.1,0-0.1,0.1-0.1c0,0,0.1-0.1,0-0.2c-0.1-0.1-0.1-0.1-0.2,0l0,0     c0,0-0.1-0.1-0.1-0.1c0-0.1-0.1-0.1-0.1-0.1c0,0,0,0,0,0c0,0-0.1,0-0.1,0l0,0c0,0,0.1-0.1,0.1-0.2l0,0c0,0,0-0.1-0.1-0.1     c0,0-0.1,0-0.1,0.1c0,0,0,0,0,0l0,0c0-0.1,0-0.1-0.1-0.3c-0.1-0.2-0.1-0.3-0.2-0.2c0,0-0.1,0-0.1,0.1c0,0-0.1,0.1-0.1,0.1     c0,0,0,0,0,0c0,0,0-0.1,0.1-0.2c0,0,0.1-0.1,0.1-0.2c0.1-0.1,0.1-0.2,0-0.3c0-0.1-0.2-0.1-0.2-0.1l0,0c0,0,0,0,0-0.1     c0-0.1,0-0.1,0-0.2c0,0,0,0,0,0l0,0c0,0,0,0,0-0.1c0,0,0-0.1-0.1-0.1c0,0,0,0-0.1,0l0,0c0,0,0-0.1-0.1-0.1c0,0,0-0.1,0-0.1     c0,0,0,0,0-0.1c0-0.1-0.1-0.1-0.1-0.1c0,0-0.1-0.1,0-0.1s0.1,0,0.1-0.1c0-0.1-0.1,0-0.2,0c0-0.1,0-0.1,0-0.1c0,0,0,0-0.1,0     c0,0,0,0,0,0c0.1,0,0.1-0.2,0-0.2s-0.1-0.1-0.1-0.2c0,0,0,0,0,0c0-0.1,0-0.2,0-0.3c0,0,0-0.2-0.1-0.2c0,0,0,0-0.1,0     c0,0,0,0.2,0,0.2c0,0,0-0.1,0-0.1c-0.1,0-0.1,0.1-0.1,0.1c0,0,0,0.1-0.1,0.1c0,0-0.1,0.1-0.1,0.2c0,0-0.1,0-0.1,0c0,0,0,0,0,0     c0,0,0,0,0,0c0,0.1,0,0.2,0,0.2c0,0,0,0,0,0c0,0,0,0-0.1,0c0,0-0.1,0-0.1,0c0,0,0,0.1,0,0.2c-0.1,0-0.1,0.1-0.2,0.1     c0,0-0.2-0.1-0.2,0c0,0.1-0.1,0.2-0.1,0.2c-0.1,0-0.1,0.2,0,0.2c0.1,0,0.1,0,0.1,0.1c0,0.1-0.2,0.1-0.2,0.1c0,0-0.2-0.1-0.2,0     c0,0.1,0,0.1,0.1,0.1s0.1,0.1,0,0.1c0,0-0.1,0-0.1,0.1s0.1,0.1,0.2,0.1c0.1,0,0.2,0,0.3,0c0.1,0,0.1,0.1,0.1,0.1     c0,0.1-0.3,0.1-0.3,0.1c-0.1,0-0.1,0.1,0,0.1c0.1,0,0.1,0,0.1,0.1h0c0,0,0,0.1,0,0.1c0,0,0,0.1,0,0.1c-0.1-0.1-0.2-0.1-0.2-0.2     c0,0,0,0,0,0c0,0,0-0.1-0.1-0.1c0,0-0.1,0.1-0.1,0.1c0,0.1,0,0.2,0,0.2l-0.5,0.1c0,0-0.2,0-0.1,0.2c0,0.1,0.3,0.1,0.3,0.2     c0,0.1-0.1,0.2-0.2,0.2c-0.1,0-0.2,0-0.3,0c-0.1,0-0.2,0.1-0.1,0.2c0,0.1,0.1,0.2,0,0.2c-0.1,0-0.2,0.1-0.2,0.2     c0,0.1,0.1,0.2,0,0.2s-0.1,0.2,0,0.3c0,0,0.1,0.1,0.2,0.1c0,0,0,0,0,0c0,0.1,0,0.1,0.1,0.2c0,0.1-0.1,0.2-0.2,0.2     c-0.1,0-0.1,0.4,0,0.4c0.1,0.1,0.3,0.1,0.3,0.3c0,0.2-0.3,0.2-0.4,0.1c0,0-0.4-0.2-0.4,0s0.1,0.3,0.2,0.3c0.1,0,0.1,0.1,0,0.2     c-0.1,0.1-0.2,0.1-0.2,0.2c0,0.1,0.1,0.2,0.4,0.2c0,0,0,0,0,0c0,0,0,0,0,0s0,0-0.1,0c0,0,0,0-0.1,0c-0.1,0-0.1,0-0.2,0.1     c0,0,0,0,0,0c0,0,0,0-0.1,0c0,0-0.1-0.1-0.1-0.1c0,0-0.1,0.1-0.1,0.1c0,0.1,0,0.1,0.1,0.2c0,0,0,0,0,0c0,0-0.1-0.1-0.1-0.1     c0,0,0,0,0-0.1c0,0,0,0,0,0c0,0,0,0-0.1,0c0,0,0,0.1,0,0.1c0,0,0,0.1,0,0.1c-0.1,0-0.2-0.1-0.2,0c0,0,0,0-0.1,0     c-0.1,0-0.2,0-0.3,0.1c0,0.1,0,0.2,0.1,0.2c0,0,0,0,0,0c0,0,0,0,0,0c-0.1,0-0.1,0.4,0,0.4c0,0,0,0,0,0c0,0,0,0,0,0     c0,0,0.1,0,0.2,0.1c0,0,0,0-0.1,0.1l0,0c0,0.1-0.1,0.1,0,0.2c0,0,0,0,0,0c-0.1,0-0.2,0-0.2,0c0,0-0.4-0.2-0.4,0     c0,0.2,0.1,0.3,0.2,0.3c0.1,0,0.1,0.1,0,0.2c-0.1,0.1-0.2,0.1-0.2,0.2c0,0.1,0.1,0.2,0.3,0.2c0,0,0,0,0,0c0,0,0,0-0.1,0     c-0.1,0-0.2-0.1-0.2,0c0,0.2-0.1,0.4-0.2,0.4c-0.1,0-0.1,0.4,0,0.4c0,0.2,0.1,0.2,0.2,0.2c0.1,0,0.1,0,0.1,0c0,0,0,0,0,0     c0,0.2-0.3,0.2-0.4,0.1c0,0-0.4-0.2-0.4,0s0.1,0.3,0.2,0.3c0.1,0,0.1,0.1,0,0.2c-0.1,0.1-0.2,0.1-0.2,0.2c0,0.1,0,0.1,0.1,0.1h0     c0,0.1,0,0.2,0.1,0.3c0,0,0,0,0.1,0.1l0,0c0,0,0,0,0,0.1c0,0,0,0,0,0l0,0c0,0,0,0,0,0c0,0-0.1,0-0.1,0.1c0,0,0,0.1,0,0.1     c0,0,0,0,0,0c-0.1,0-0.4-0.3-0.4-0.1c0,0.2-0.1,0.4-0.2,0.4c-0.1,0-0.1,0.4,0,0.4c0.1,0.1,0.3,0.1,0.3,0.3s-0.3,0.2-0.4,0.1     c0,0-0.4-0.2-0.4,0c0,0,0,0,0,0.1c0,0,0,0-0.1,0c-0.1,0-0.2,0-0.3-0.1c0,0,0,0,0,0c0.1,0,0.1-0.1,0.1-0.1c0,0,0-0.1-0.1,0l0,0     c0,0,0,0,0-0.1c0,0-0.1,0-0.1,0c0,0,0,0,0,0c0,0-0.1,0-0.1,0c-0.1,0-0.1,0-0.1-0.1c0-0.1,0-0.1-0.1-0.1c0,0,0,0,0,0l0,0l0,0     c0,0,0,0,0.1,0c0,0,0.1,0,0.1-0.1c0,0,0,0,0,0c0,0,0,0,0,0c0,0,0,0,0,0l0,0c0,0-0.1,0-0.2,0l0,0l0,0l0,0l0,0c0,0,0.1,0,0.1-0.1     c0.1,0,0.1-0.1,0.2-0.2c0,0,0-0.1,0-0.1c0,0,0-0.1,0-0.1c0-0.1-0.1-0.1-0.2-0.1c-0.1,0-0.1,0-0.2,0c0,0-0.1,0-0.2,0     c0,0-0.1,0-0.1,0c-0.1,0-0.2,0-0.2,0c0,0,0.1,0,0.2,0c0.1,0,0.1,0,0.1,0c0,0,0-0.1,0-0.1c0,0,0-0.1-0.1-0.1c0,0,0-0.1,0.1-0.1     c0,0,0.1,0,0.1,0c0.1-0.1,0.2-0.2,0.2-0.3c0,0,0,0,0,0c0,0,0,0,0,0c0,0,0,0-0.1,0c0,0-0.1,0-0.1,0c-0.1,0-0.1,0-0.2,0     c0,0,0,0,0,0l0,0c0,0,0,0,0-0.1c0,0-0.1-0.1-0.1,0c0,0-0.1,0.1-0.1,0.1c0,0,0,0,0,0c0,0-0.1,0-0.1,0c0,0,0,0,0-0.1     c0-0.1,0-0.1,0-0.1c0,0,0,0,0,0c0,0,0,0,0.1,0c0,0,0.1,0,0.1-0.1c0.1,0,0.1-0.1,0.2-0.2c0.1-0.1,0.1-0.2,0.2-0.2     c0.1,0,0.1-0.1,0.1-0.1c0,0,0-0.1,0-0.1c0,0,0,0,0,0l0,0l0,0c0-0.1,0.1-0.1,0.1-0.1l0,0l0,0c0,0,0,0,0-0.1c0,0,0,0,0,0     c0,0,0.1,0,0.1,0c0,0,0.1-0.1,0.1-0.1c0,0,0.1-0.1,0.1-0.1c0.1-0.1,0.1-0.2,0.1-0.2c0,0,0-0.1,0-0.1l0,0c0,0,0,0-0.1,0     c0,0,0,0-0.1,0.1c0,0.1-0.1,0.1-0.2,0.1c0,0,0,0-0.1,0c0,0,0,0,0,0c0-0.1,0-0.1,0-0.2c0,0,0,0,0,0c0,0,0.1-0.1,0.1-0.1     c0-0.1,0-0.2,0-0.3c0-0.1,0-0.1-0.1-0.1c-0.1,0-0.1,0-0.2,0.1c-0.2,0.1-0.5,0.2-0.6,0.1c0,0-0.1-0.1-0.1-0.1     c0-0.1-0.1-0.1-0.2-0.2c-0.1,0-0.1,0-0.1,0s0,0,0.1-0.2c0.1-0.1,0.3-0.3,0.6-0.4c0.2-0.1,0.3-0.2,0.3-0.2c0-0.1-0.1-0.1-0.1-0.1     c0,0,0,0,0,0c0,0,0-0.1-0.1-0.2c-0.1-0.1-0.1-0.1-0.2-0.1c0,0-0.1,0-0.1,0c-0.1,0-0.2,0-0.2,0c-0.2,0-0.2-0.1-0.3-0.3     c0-0.1-0.1-0.2-0.1-0.2c0,0,0,0-0.1,0c0,0,0,0,0,0c0,0,0,0,0.1,0c0,0,0.1,0,0.1,0c0.1,0,0.2-0.1,0.2-0.1c0,0,0-0.1,0-0.1     c0-0.1-0.1-0.1-0.1-0.1c0,0-0.1,0-0.1,0l-0.1,0c-0.1,0-0.3,0.1-0.4,0c0,0,0,0,0,0c0,0,0,0,0,0l0,0c0,0,0.1,0,0.1,0     c0.1,0,0.2-0.1,0.2-0.2c0-0.1-0.1-0.1-0.1-0.1c0,0,0,0-0.1,0c0,0,0,0-0.1,0c0,0-0.1,0-0.1-0.1c-0.1,0-0.1-0.1-0.2-0.1     c-0.1,0-0.1,0-0.1,0c0,0,0,0,0.1,0c0.1-0.1,0.2-0.1,0.2-0.2c0-0.1,0-0.2,0-0.2c0,0-0.1-0.1-0.1-0.1c0,0-0.1,0-0.1,0     c0,0-0.1,0-0.1,0c-0.1,0-0.1,0-0.2,0c-0.1,0-0.2,0-0.2-0.1c0,0,0,0-0.1-0.1c1-0.3,0.1-0.5,0.1-0.8c0-0.3-0.3-0.7-0.3-0.7l0,0     c0,0,0,0,0,0c-0.1-0.2-0.2-0.4-0.2-0.5c0-0.1-0.1-0.2-0.2-0.1c-0.1,0-0.1,0-0.2,0c0-0.1-0.1-0.1-0.2,0c-0.1,0-0.2,0-0.2,0.1     c0,0.1-0.1,0.2-0.2,0.3c-0.1,0.1-0.2,0.1-0.2,0.2c-0.1,0.1-0.1,0.2-0.1,0.3c0,0.1-0.1,0.1-0.2,0.1c-0.1,0-0.2,0-0.1,0.2     c0,0.1,0,0.2,0.1,0.2c0,0,0.1,0.1,0,0.1c-0.1,0-0.2-0.1-0.2,0c0,0.1,0,0.1,0,0.2c0,0,0,0.1-0.1,0.1c-0.1,0-0.2,0.1-0.2,0.1     c0,0.1,0,0.1,0.1,0.2c0.1,0,0.1,0.1,0,0.1c-0.1,0-0.2,0.1-0.1,0.2l0,0l0,0c0,0,0,0,0,0c0.1,0.1,0.1,0.1,0.2,0.1     c0,0,0,0.2,0.2,0.1c0,0,0,0,0,0l0,0.4l0,0c0,0,0,0,0,0c0,0,0,0,0,0c0,0,0,0,0,0c0,0,0,0,0,0c0,0-0.1,0-0.1,0.1c0,0,0,0,0,0     c0,0,0,0-0.1,0c0,0-0.1-0.1-0.1,0c0,0-0.1,0.1-0.1,0.1c0,0,0,0.1,0.1,0.2c0,0,0,0,0,0c0,0,0,0,0,0l0,0c0,0-0.1-0.1-0.1-0.1     c0,0,0,0,0,0c0,0,0,0,0,0c0,0,0,0-0.1,0c0,0,0,0.1,0,0.1c0,0.1,0,0.1,0.1,0.1c0,0-0.1,0-0.1,0c-0.1,0-0.1,0-0.1,0c0,0,0,0-0.1,0     c-0.1,0-0.2,0-0.3,0.1c0,0.1,0,0.2,0.1,0.2c0,0,0,0,0.1,0.1l0,0c0,0,0,0,0,0.1l0,0c0,0,0,0,0,0c0,0-0.1,0-0.1,0.1     c0,0.1,0,0.1,0,0.2c0,0,0,0.1,0.1,0.1c0,0,0.1,0,0.2,0.1c0,0,0,0-0.1,0.1l0,0c0,0-0.1,0.1-0.1,0.2c0,0,0,0.1,0.1,0.1c0,0,0,0,0,0     c0,0.1,0,0.1,0,0.2c0,0,0,0,0,0c0,0-0.1,0.1-0.1,0.2c0,0,0,0,0,0.1c0,0-0.1,0.1-0.1,0.1c0,0-0.1,0-0.1,0c0,0,0,0,0,0     c0,0-0.1,0-0.1,0c0,0,0,0,0,0c0,0.1-0.1,0.1-0.1,0.2c-0.1,0-0.1,0-0.2,0.1c0,0,0,0,0,0c0,0,0,0,0,0c0,0-0.1-0.1-0.1,0     c0,0,0,0.1-0.1,0.1c0,0,0,0.1,0.1,0.2c0,0,0,0,0,0c-0.1,0-0.1-0.1-0.2-0.1c0,0,0,0,0,0c0,0,0,0,0,0c0,0,0,0-0.1,0     c0,0,0,0.1,0,0.1c0,0.1,0,0.1,0.1,0.1c0,0,0,0-0.1,0c-0.1,0-0.1,0-0.1,0c0,0,0,0-0.1,0c-0.1,0-0.2,0-0.3,0.1c0,0.1,0,0.2,0.1,0.2     c0,0,0,0,0.1,0.1l0,0c0,0,0,0,0,0.1l0,0c0,0,0,0,0,0c0,0,0,0-0.1,0.1c0,0.1,0,0.1,0,0.2c0,0,0,0.1,0.1,0.1c0,0,0.1,0,0.2,0.1     c0,0,0,0-0.1,0.1l0,0c0,0-0.1,0.1-0.1,0.2c0,0,0,0.1,0.1,0.1c0,0,0.1,0.1,0.2,0.1c0,0,0,0,0,0c0,0-0.1,0-0.1,0     c0,0-0.1,0.1-0.1,0.2c0,0,0,0.1,0.1,0.1c0,0,0.1,0,0.1,0c0,0,0,0,0.1,0c0,0,0,0,0,0v0h0c0,0,0,0,0,0c0,0,0,0,0,0c0,0-0.1,0-0.1,0     c0,0,0,0,0,0.1c0,0,0,0.1,0.1,0.1c0,0,0.1,0,0.1,0c0.1,0,0.1,0,0.2,0c0.1,0,0.1,0,0.2,0c0,0,0,0,0,0c0,0-0.1,0.1-0.1,0.1l0,0l0,0     c0,0,0,0,0.1,0.1c0.1,0,0.4,0.1,0.5,0l0,0c0,0,0,0,0,0l0,0c0,0,0,0,0,0c0,0,0,0,0,0c0,0.1,0.1,0.1,0.1,0.2c0,0,0,0,0,0     c0,0,0,0,0,0c0,0-0.1,0-0.1-0.1c0,0-0.1,0-0.1,0c-0.1,0-0.1,0-0.1,0.1c0,0,0,0.1-0.1,0.2c0,0-0.1,0-0.1,0c0,0-0.1,0-0.1,0     c0,0-0.1,0-0.1,0.1c0,0,0,0,0,0.1c0,0-0.1,0-0.1,0l0,0c0,0-0.1,0-0.2-0.1c-0.1,0-0.2-0.1-0.2-0.1c-0.1,0-0.1-0.1-0.1-0.1     c0,0,0-0.1-0.1-0.1c0,0-0.1,0-0.1,0c0,0-0.1,0.1-0.1,0.2c0,0.1,0,0.3,0.1,0.3c0,0.1,0.1,0.1,0.1,0.1c0,0,0,0,0,0l0,0     c0,0.1,0,0.1,0,0.1l0,0c0,0-0.1,0-0.1,0.1c0,0,0,0.1,0,0.1c0,0,0,0,0,0c0,0,0,0,0.1,0l0,0c0,0,0.1,0,0.1,0l0,0c0,0,0,0,0,0     c0,0,0,0-0.1,0c0,0,0,0.1,0,0.1c0,0.1,0.1,0.1,0.2,0.1l0,0c0,0,0.1,0,0.1,0.1c-0.1,0.1-0.1,0.2-0.3,0.2c-0.1,0-0.1,0-0.2,0     c0,0,0,0-0.1,0c-0.1,0-0.1,0-0.2,0.1c-0.1,0.1-0.1,0.1-0.1,0.1c0,0,0,0,0,0c-0.1,0-0.1,0-0.1,0.1c0,0.1,0,0.2,0.2,0.2     c0.2,0.1,0.3,0.3,0.4,0.4c0.1,0.1,0.1,0.2,0.1,0.2s0,0-0.1,0c-0.1,0-0.2,0-0.2,0.1c0,0,0,0.1-0.1,0.1c-0.1,0.1-0.4,0-0.5-0.2     c-0.1-0.1-0.1-0.1-0.2-0.1c0,0-0.1,0-0.1,0.1c0,0.1-0.1,0.1,0,0.2c0,0.1,0,0.1,0.1,0.2c0,0,0.1,0,0.1,0v0     c-0.1,0.1-0.1,0.1-0.1,0.2c0,0.1,0,0.1,0.1,0.2c0,0,0.1,0.1,0.1,0.1c0.1,0.1,0.1,0.2,0.3,0.2c0.3,0.1,0.4,0.2,0.5,0.3     c0,0,0,0,0,0.1c0,0,0,0.1,0,0.2c0,0,0.1,0.1,0.2,0.1c0,0,0.1,0,0.1,0c0,0.1,0.1,0.1,0.1,0.1c0,0,0,0,0,0c0,0,0,0.1,0,0.1     c0,0,0,0,0,0c0,0,0,0,0,0c0,0,0,0-0.1,0c-0.1,0-0.2-0.1-0.2-0.2c0-0.1,0-0.1-0.1-0.1c0,0,0,0-0.1,0c0,0,0,0.1-0.1,0.1     c0,0,0,0.1,0,0.1c0,0,0,0,0,0c0,0-0.1,0-0.1,0.1c0,0,0,0.1,0,0.1c0,0,0,0,0,0.1c0,0,0,0.1,0.1,0.2c0.1,0.1,0.2,0.2,0.2,0.2l0,0     c0,0,0,0.1,0,0.1c0,0,0,0-0.1,0c0,0,0,0.1,0,0.1c0,0,0.1,0.1,0.1,0.1c0,0,0.1,0,0.1,0c0,0,0,0,0,0c0,0,0,0,0,0c0,0,0,0,0,0     c0,0,0,0-0.1,0c0,0,0,0,0,0.1c0,0,0,0-0.1,0c0,0-0.1,0-0.1,0c0,0,0,0-0.1,0c0,0,0,0,0,0c0,0-0.1,0-0.1,0c0,0,0,0.1,0,0.1     c0,0,0,0.1,0.1,0.1c0,0,0,0,0,0s0,0,0,0c0,0-0.1,0-0.1,0c0,0-0.1,0-0.1,0l0,0c0,0,0.1-0.1,0.1-0.1c0,0,0-0.1,0-0.1     c0,0,0-0.1-0.1,0c0,0-0.1,0-0.1,0.1c-0.1,0.1-0.2,0.1-0.3,0.1c0,0,0,0,0.1,0c0,0,0.1-0.1,0.1-0.1c0,0,0,0,0-0.1     c0,0-0.1-0.1-0.1,0c0,0,0,0-0.1,0l0,0c-0.1,0-0.2,0.1-0.2,0.1l0,0l0,0l0,0c0,0,0,0,0,0c0,0,0.1-0.1,0.1-0.1c0,0,0,0,0,0     c0,0,0.1-0.1,0.2-0.1c0.1-0.1,0.1-0.1,0.1-0.2c0,0-0.1-0.1-0.1,0l0,0c0,0,0-0.1-0.1-0.1c0,0-0.1,0-0.1,0c0,0,0,0-0.1,0     c0,0-0.1,0-0.1,0c-0.1,0-0.2,0-0.2-0.1c0-0.1-0.1-0.1-0.1-0.1c0,0,0,0,0,0l0,0l0,0c0,0,0,0,0.1,0c0,0,0.1-0.1,0.1-0.1     c0,0,0,0,0-0.1c0,0-0.1-0.1-0.1,0c0,0,0,0-0.1,0l0,0c0,0-0.1,0-0.1,0.1c0,0,0,0,0,0l0,0l0,0c0,0,0,0,0,0c0,0,0.1-0.1,0-0.1     c0,0,0,0,0,0c0,0,0,0,0,0v0l0,0c0,0,0,0,0-0.1l0,0c0,0,0.1,0,0.1,0c0,0,0.1-0.1,0.1-0.1c0,0,0.1-0.1,0.1-0.2     c0.1-0.1,0.1-0.2,0.1-0.3c0,0,0-0.1,0-0.1l0,0c0,0,0-0.1-0.1,0c0,0,0,0-0.1,0.1c0,0.1-0.1,0.1-0.2,0.1c0,0,0,0,0,0c0,0,0,0,0,0     c0-0.1,0-0.1,0-0.2c0,0,0,0,0,0c0,0-0.1,0-0.1,0c0,0-0.1,0.1-0.1,0.1c0,0,0,0-0.1,0c0,0,0-0.1,0-0.1v0c0,0,0,0,0,0     c0,0,0-0.1,0-0.1c0,0,0-0.1,0-0.1c0,0,0,0,0,0c0,0,0,0-0.1,0.1c0,0.1-0.2,0.1-0.2,0.1c0,0,0,0,0,0c0,0,0-0.1-0.1,0c0,0,0,0,0,0     s0,0,0-0.1c0-0.1,0.1-0.2,0.2-0.2c0.1,0,0.1-0.1,0.1-0.1c0,0,0-0.1-0.1,0v0c0,0,0,0,0-0.1c0,0-0.1,0-0.1,0l0,0c0,0,0,0-0.1,0     c0,0-0.1-0.1-0.1-0.1c0,0,0,0,0,0c0,0,0,0,0,0c0-0.1,0-0.1,0-0.1c0,0,0,0,0,0l0,0l0,0c0,0,0,0,0,0c0,0,0,0,0.1-0.1c0,0,0,0,0,0     c0,0,0,0,0,0c0,0,0,0,0,0l0,0c0,0-0.1,0.1-0.1,0l0,0l0,0v0c0,0,0,0,0,0c0,0,0.1,0,0.1-0.1c0,0,0,0,0,0l0,0c0,0,0,0,0,0     c0,0,0,0,0,0c0-0.1,0-0.1-0.1-0.1c0,0,0,0,0,0l0,0c0,0,0,0,0,0c0,0,0.1,0,0.1-0.1c0,0,0-0.1,0-0.1c0,0,0,0-0.1,0c0,0,0,0,0,0     c0,0,0,0,0,0c0,0,0,0,0,0l0,0c0,0,0,0,0,0c0,0,0,0,0,0c0,0-0.1-0.1-0.1-0.1c0,0,0,0,0,0s0,0,0,0c0,0,0.1-0.1,0.1-0.1     c0,0,0-0.1,0-0.1c0,0,0-0.1-0.1-0.1c0,0,0,0,0,0c0,0,0,0,0-0.1c0,0,0-0.1,0-0.1c0,0,0,0,0,0c0,0,0,0,0,0c0,0,0,0-0.1,0     c-0.1,0-0.1,0-0.1,0l0,0c0,0,0,0,0.1,0c0.1,0,0.1,0,0.1-0.1c0,0,0,0,0-0.1l0,0c0,0,0,0,0,0c0,0,0.1,0,0.1,0     c0.1,0,0.1-0.1,0.1-0.1c0,0,0-0.1,0-0.1c0,0,0,0,0,0c0,0,0,0,0-0.1c0,0,0-0.1,0-0.1c0,0,0-0.1-0.1-0.1c0,0-0.1,0-0.1,0.1     c0,0,0,0,0,0s0,0,0,0c0-0.1,0-0.1,0-0.1c0,0,0,0-0.1,0c0,0,0,0,0,0l0,0c0,0,0,0-0.1,0c0,0,0,0,0,0c0,0,0-0.1,0-0.1l0,0     c0,0,0,0,0,0c0,0,0,0-0.1-0.1c0.1,0,0.1,0,0.1-0.1c0,0,0-0.1,0-0.1v0c0,0,0,0,0,0c0,0,0.1,0.1,0.1,0.1c0.1,0,0.1,0,0.1-0.1     c0,0,0-0.1,0-0.1c0,0,0-0.1,0-0.1c0,0,0-0.1,0-0.1c0,0,0-0.1,0-0.1c0-0.1-0.1-0.1-0.1-0.1c0,0-0.1,0-0.1,0.1c0,0,0,0,0,0s0,0,0,0     c0-0.1,0-0.1,0-0.2c0,0,0,0-0.1,0c0,0,0,0,0,0c0,0,0.1-0.1,0.1-0.2c0-0.1,0-0.1,0-0.1c0,0,0-0.1,0-0.2c0-0.1-0.1-0.1-0.2,0l0,0     c0,0,0-0.1-0.1-0.1c0-0.1-0.1-0.1-0.1-0.1c0,0,0,0,0,0c0,0,0,0-0.1,0l0,0c0,0,0.1-0.1,0-0.2l0,0c0,0,0-0.1,0-0.1c0,0,0,0-0.1,0     l0,0l0,0c0,0,0-0.1,0-0.2c0-0.2-0.1-0.2-0.1-0.2c0,0-0.1,0-0.1,0.1c0,0-0.1,0.1-0.1,0.1c0,0,0,0,0,0c0,0,0,0,0.1-0.2     c0,0,0-0.1,0.1-0.1c0-0.1,0.1-0.2,0-0.2c0-0.1-0.1-0.1-0.2-0.1l0,0c0,0,0,0,0-0.1c0,0,0-0.1,0-0.1c0,0,0.1,0,0-0.1     c-0.1-0.1-0.2-0.3-0.2-0.4c0-0.1-0.1-0.1-0.1-0.1c0-0.1,0-0.1,0-0.1c0,0-0.1-0.1-0.1,0c0,0,0,0,0,0.1c0,0-0.1-0.1-0.1,0     c-0.1,0-0.1,0-0.2,0.1c0,0.1-0.1,0.2-0.2,0.3c-0.1,0.1-0.1,0.1-0.2,0.1c-0.1,0.1-0.1,0.1-0.1,0.2c0,0.1-0.1,0.1-0.2,0.1     c-0.1,0-0.1,0-0.1,0.1c0,0.1,0,0.1,0.1,0.2c0,0,0.1,0.1,0,0.1c-0.1,0-0.1-0.1-0.2,0c0,0.1,0,0.1,0,0.1c0,0,0,0,0,0c0,0,0,0,0,0     c0,0,0,0,0,0c-0.1,0-0.1,0.1-0.2,0.1c0,0,0,0.1,0,0.1c0,0,0.1,0.1,0,0.1c-0.1,0-0.2,0.1-0.1,0.2c0.1,0.1,0.1,0.1,0.2,0     c0,0,0,0.1,0.1,0.1c0,0.1,0.1,0.1,0.1,0.2c0,0,0.1,0,0.1,0.1c0,0,0,0,0,0c0,0,0,0.1,0,0.1l0,0l0,0l0,0l0,0l-0.1,0.1c0,0,0,0,0,0     c0,0,0,0.1,0,0.1c0,0,0,0,0,0c0,0,0,0,0,0c0,0,0,0,0,0l0,0c0,0-0.1-0.1-0.1-0.1c0,0-0.1,0.1-0.1,0.1c0,0,0,0,0,0c0,0,0,0-0.1,0.1     l0,0c0,0.1-0.1,0.1-0.1,0.1c0,0-0.1,0-0.1,0c0,0,0,0,0,0l0,0c0,0,0-0.1,0-0.1c0,0,0,0,0,0c0,0.1,0,0.1,0,0.1c0,0,0,0.1,0,0.1     c0,0,0,0,0,0l0,0l0,0c0,0-0.1,0-0.1,0c0,0,0,0,0-0.1c0,0,0-0.1,0-0.1c0,0,0,0,0,0c0,0,0,0.1,0,0.1c0,0.1,0.1,0.2,0.2,0.2     c0,0,0,0,0.1,0c0,0,0,0,0,0.1c0,0,0,0.1,0,0.1c0,0,0,0,0,0v0c0,0,0,0,0,0.1c0,0,0,0.1,0,0.1c0,0,0.1,0,0.1,0c0,0,0,0,0,0.1     c0,0,0,0.1,0.1,0.1c0,0,0,0,0,0c0,0,0,0.1,0,0.1c0,0,0,0,0,0.1c0,0,0,0,0,0s0,0-0.1,0c0,0,0,0-0.1,0c-0.1,0-0.1,0-0.2,0     c0,0,0,0,0,0s0,0,0,0c0,0-0.1-0.1-0.1,0c0,0,0,0,0,0.1c0,0,0,0.1,0.1,0.1c0,0,0,0,0,0c0,0-0.1-0.1-0.1-0.1c0,0,0,0,0,0     c0,0,0,0,0,0c0,0-0.1,0-0.1,0c0,0,0,0.1,0,0.1c0,0.1,0,0.1,0.1,0.1c0,0,0,0-0.1,0c0,0-0.1,0-0.1,0c0,0,0,0-0.1,0     c-0.1,0-0.2,0-0.2,0.1c0,0.1,0,0.2,0.1,0.2c0,0,0,0,0,0.1l0,0c0,0,0,0,0,0.1l0,0c0,0,0,0,0,0s0,0-0.1,0c0,0.1,0,0.1,0,0.2     c0,0,0,0.1,0.1,0.1c0,0,0.1,0,0.1,0.1c0,0,0,0-0.1,0.1l0,0c0,0-0.1,0.1,0,0.2c0,0,0,0.1,0.1,0.1c0,0,0,0,0,0.1c0,0,0,0.1,0,0.1     c0,0,0,0,0,0c0,0-0.1,0-0.1-0.1c0,0,0,0,0,0c0,0,0,0,0,0c0,0,0,0-0.1,0c0,0,0,0.1,0,0.1c0,0.1,0,0.1,0.1,0.1c0,0,0,0-0.1,0     c0,0-0.1,0-0.1,0c0,0,0,0-0.1,0c-0.1,0-0.2,0-0.2,0.1c0,0.1,0,0.2,0.1,0.2c0,0,0,0,0,0.1l0,0c0,0,0,0,0,0.1l0,0l0,0     c0,0,0,0-0.1,0.1c0,0.1,0,0.1,0,0.2c0,0,0,0,0,0.1c0,0,0,0,0,0c0,0,0,0.1,0,0.1c0,0,0.1,0.1,0.1,0.1c0,0,0,0-0.1,0     c0,0-0.1,0-0.1,0c0,0,0,0-0.1,0c-0.1,0-0.2,0-0.2,0.2c0,0.1,0.1,0.2,0.1,0.2c0,0,0,0,0.1,0l0,0c0,0,0,0,0,0c0,0,0,0.1,0,0.1     c0,0,0,0.1,0.1,0.2c0,0,0,0,0,0c0,0,0,0,0,0c0,0-0.1-0.1-0.1-0.1c0,0,0,0,0,0c0,0,0,0,0,0c0,0-0.1,0-0.1,0c0,0,0,0.1,0,0.1     c0,0.1,0,0.1,0.1,0.1c0,0,0,0,0,0c0,0-0.1,0-0.1-0.1c0,0,0,0,0,0c0,0,0,0,0,0c0,0,0,0-0.1,0c-0.1,0-0.2,0-0.2,0.1     c0,0.1,0,0.2,0.1,0.2c0,0,0,0,0,0.1l0,0c0,0,0,0,0,0.1l0,0c0,0,0,0,0,0c0,0-0.1,0-0.1,0.1c0,0,0,0.1,0,0.1c0,0-0.1-0.1-0.1-0.1     c0,0,0,0-0.1,0c0,0,0,0.1,0,0.1c0,0,0,0,0,0c0,0,0,0,0,0c0,0-0.1,0-0.1,0.1c0,0.1,0,0.1,0.1,0.2c0,0,0,0,0,0c0,0,0,0,0,0     s0,0-0.1,0c0,0,0,0-0.1,0c-0.1,0-0.1,0-0.2,0.1c0,0,0,0,0,0c-0.2-6.8-0.5-15.1-0.8-24.3c1.3,0.9,2.9,0.7,3.4,0.2     c0.6-0.6-1-1-1.3-1.3c-0.1-0.1-0.1-0.4,0.2-0.7c1.3-1.4,5.1,1.8,5.8,1.7c0.7-0.1,0.9-1.1-0.2-1.9c-1-0.7-0.7-1.1-0.6-1.2     c0,0,0,0,0,0c1-1.2,7,1,7.7,0.6c0.7-0.4,0.6-1.6-1-2.1c-0.4-0.1-0.7-0.3-0.8-0.4c1.1,0,1.1,0,2-0.3c1.1-0.4,1.3,0.1,1.6,0.1     c0.4,0,0.7,0,0.7-0.7c0-0.7,0.3-0.7,1.4-0.7c1.1,0,1.3-0.3,1.3-0.8c0-0.5-0.5-1-1.2-1c-0.7,0-0.8,0-0.6-0.8     c0.2-0.8-0.7-1.1-1.4-1.4c-0.8-0.3,0.4-1.5-0.4-2.3c-0.7-0.9-2-0.1-2-0.8c0-0.7,1.3-1.3,2.2-1.8c0.9-0.5,2.2-0.3,2.2-1.3     c0-1.1-1.4-1.3-1.8-2.1c-0.4-0.7,0.7-1.3,1.3-1.6c0.6-0.2-0.3-1.8-0.7-2.2c-0.5-0.5,0.6-0.9,0.4-2c-0.2-1.1-2.2-0.5-2.9-0.6     c-0.7-0.1-1.1-1.2-0.6-2.3c0.5-1.1,0.3-1.3-0.2-1.6c-0.1-0.1-0.2-0.3-0.3-0.6c-0.2-0.6,1-0.8,1-1.6c0-0.8-0.5-1.4-1.9-1.4     s-1.7-0.8-1.7-2c0-1.2,2.4-0.8,2.4-1.5c0-0.3-0.3-0.8-0.7-1.2c-0.9-1.1-1.8-1.6-1.7-2.9c0.1-1.3,0.8-1.7,1.4-1.7     c2,0.1,2.7,1.4,3.2,1.3c0.5-0.1,0.7-0.9-0.2-1.5c-0.4-0.3-0.5-0.6-0.4-0.9c0-0.2,0.4-0.3,1-0.4c3.5-0.3,4.9,0.5,5.4,0.3     c0.6-0.3,0.5-1.4-0.8-1.7c-1-0.2-2-0.5-1.9-0.9c0-0.2,0.1-0.4,0.2-0.6c0.3-0.5,0.2-0.3,0.5-1c0.2-0.7,1.1-0.9,1.1-1.5     c0.1-0.9-2.6,0-2.6-0.6c0-0.6,0.4-1.1,1.2-1.1c0.7,0-0.1-1.1,0.1-1.7c0.2-0.2,0.2-0.2,0.3-0.3c0.8-0.6,0.9-0.2,1.1-1     c0.1-0.5-0.2-0.8,0.4-0.8c0.6,0,0.5,0.2,1-0.1c0.4-0.2,0.6-0.4,1.3-0.5c2-0.1,1.7-1.3,2.8-2.6c0.8-0.9,0-1.6-0.5-1.9c0,0,0,0,0,0     c-0.3-0.3-1.4-0.6-1.9-0.6c-0.2,0-1.4,0.3-1.4-0.5s0.6-0.9,1.1-1.1c0.8-0.2,0.9-1.5,0-1.6c-0.5-0.1-0.8-1.5-1.4-1.4     c-0.4,0.1-0.7,0.3-1.1,0.3c-0.2,0-0.3-0.2-0.5-0.4c0,0,0,0,0,0c-0.7-0.8-2.1-1-3.2-1s0-0.6,0-1.9s2.2-0.9,3.1-1.8     c0.8-0.8,0-1.7-0.6-2.3c-0.6-0.6-1.9,0-2.8,0c-0.9,0-1.2-1.1-1.2-1.8c0-0.7-0.8-0.8-1.4-0.8c-0.7,0-0.2-1-1.3-1     c-1,0-0.4-0.3-1.7-0.4c-0.6,0-1-0.5-1.6-1.1c-1.4-1.8-2.7-1.6-2.7-1.6c-1.6-0.8,0.5-0.4,1.2-1.2c0.5-0.6-2-0.8-2-1.8     c0-1,3.1-0.3,3.8-0.3c0.8,0,2.9,0.7,3.1-0.5c0.1-0.7-0.4-1.2-1.1-1.5c-0.6-0.3-1.2-0.4-1.2-1.5c0-1.1,1.4-0.6,1.8-0.5     c0.5,0.2,3.1,0.7,3.4-0.3c0.3-0.9-0.8-1-1-1c-0.7-0.1-0.5-0.6-0.5-1c0-0.4-0.4-0.7-1.3-0.7c-0.9,0-1.7-0.1-1.7-0.5     c0-0.4,0.3-0.7,1-0.7s0.9-0.8,0.9-1.3c0-0.5-0.3-1.4-1-1.4c-0.6,0-2.2,0.1-2.8-0.5c-0.2-0.3,0-0.7,0.6-1.1     c0.8-0.5,1.5-0.5,3.8,0.7c1.5,0.8,1.3-0.5,0.9-1.1c-0.4-0.6-2-2.1-0.7-1.8c1.3,0.3,3.5,1.5,3.7,0.9s0-1.1,1.7-0.9     c1.7,0.2,1.5-1.8,0.5-2c-0.7-0.2-2.6-0.9-4-1.5c0.2-0.2,0.6-0.2,1.4-0.1c1.7,0.2,1.5-1.8,0.5-2c-0.6-0.1-1.9-0.6-3.2-1.2     c-0.6-0.3-1-0.6-1.8-1h0c-1-0.6-2-1.8-1.7-2.6c0.3-0.8,1.5-0.6,1.3-1.6c-0.1-0.6-0.5-1.4-1.6-1.5c-0.6,0,0-0.8-0.1-1.5     s-1.3-1.3-1.8-1.5c-0.7-0.2-2.7-1.8-2.6-2.8c0-0.1,0-0.1,0-0.1c0,0,0,0,0,0c0.2-1.2-1.1-2.1-2.2-2c-0.6,0.1-0.9,0-1.1-0.1     c-0.2-0.2,0-0.4,0.1-0.7c0.2-0.5,0.7-0.7,0.2-1.6c-0.5-0.9-1.3-0.2-2.4,0.2c-0.9,0.4-1-0.3-0.9-0.7c0.3-0.4,1.1-0.7,1.3-1.2     c0.3-0.6,0.5-1.3,0.5-2.1c0-0.8-1.2-0.8-2.4-0.8c-1.3,0-1.4-2.1-1.6-3c-0.2-1-1.3-2.3-2.1-2.7c-0.8-0.4-2.2-3.1-3.3-3.5     c-2.5-0.8-3.2-0.5-3.6-0.1c-0.2,0.1-0.4,0.3-0.5,0.6c-0.2,0.4-0.4,0.6-0.6,0.6c-0.1,0-0.1,0-0.2,0c-0.2,0-0.5-0.1-0.9-0.2     c-0.5-0.1-0.8-0.1-1.2,0c0,0-0.1,0-0.1,0c0,0-0.1,0-0.1,0.1c0,0,0,0,0,0c-0.3,0.1-0.5,0.4-0.8,0.9c-0.5,1-1.4,2.9-2.2,4.6     c-0.8,1.1-1.8,1.9-2.4,2c-0.6,0.2-0.9,0.7-1,1.1c0,0.1-0.1,0.1-0.1,0.2c0,0,0,0,0,0c0,0,0,0,0,0c-0.1,0.4-0.2,1-0.2,1.6     c0,0.2-0.1,0.4-0.2,0.5c0,0-0.1,0-0.1,0c-0.9-0.1-1.2,0.4-1.3,0.5c0,0,0,0,0,0c0,0,0,0,0,0l0,0c0,0.1-0.1,0.1-0.1,0.2     c-0.1,0.8-0.1,1.8,0.4,2.3c-0.1,0.2-0.2,0.3-0.4,0.5c-0.8,0.7-0.5,1.4,0,1.5c0.2,0,0.4-0.2,0.8-0.4l0,0c0,0,0.8-0.3,1.2,0.1     c0,0,0,0.1,0,0.1c0,0,0,0.1,0.1,0.1c0,0.1,0,0.1,0.1,0.2c0.1,1.2-3.7,2.4-4.8,3.8c0,0-1,1.3-1.9,2.2c0,0-0.1,0.1-0.1,0.1l0,0     c-0.1,0.1-0.2,0.2-0.3,0.3c-1,0.8-1.3,1.3-0.8,1.6c0.3,0.2,1.1,0,2.8,0c0.2,0,0.9,0.1-0.5,1.1c-0.9,0.6-0.7,1.4-0.1,1.5     c0.3,0.1,1-0.5,2.3-1c0.9-0.4,0.6,1,0.6,1.6c0.1,0.7-0.1,1.1,1.1,1.3c0.5,0.1,3.1-0.1,3.1,0.5c-0.1,0.6-0.2,0.7-1,1     c-1.3,0.6-3.2,0.8-3.6,0.9c-0.6,0.2-1.1,0.8-2.3,0.7c-0.5-0.1-1-0.2-1.1-0.2l-0.3-0.1c0,0-0.9-0.2-1.1,0.6     c-0.2,0.8,1.1,1,0.9,1.6c-0.2,0.6-0.9,0.8-1.6,0.6c-0.7-0.2-1.2-0.5-1.6-0.6c-0.4-0.1-0.8,0-1.2,0.5c-0.6,0.6-0.6,0.6-0.9,0.9     c-0.5,0.3-0.5,0.3-1,0.7c-0.8,0.6,0,0-0.8,0.6c-0.5,0.4-0.3,1.2-0.4,1.6c-0.1,0.4,0,0.4-0.3,0.9c-0.5,0.6-1.6,0.7-1.8,1.2     c0,0,0,0,0,0c-0.1,0.1-0.2,0.2-0.2,0.4c-0.1,1.2,0.4,1.8,1.2,1.8c0.8,0,1.9,0.5,1.6,0.8c-0.3,0.3-1.3,0-1.3,0.9     c0,0.9,0.5,1.6,1.6,1.6c1.1,0,2.1,0.1,2.1,1.1c0,1-0.9,0.9-0.9,1.8c0,0.9,0.2,1.6,1.6,1.6s3.2-1.5,4-0.9c0.8,0.6,1.7,1.1,2.6,0.9     c0.8-0.3,4-2.4,4.2-0.6c-0.1,0.2-0.2,0.3-0.6,0.5c-1,0.3-1.1,1-0.6,1.3c0.2,0.1,0.5,0,1-0.1c-0.4,0.9-1.3,1.2-2.4,1.2     c-1.6,0-4,2.1-4.8,1.7c-0.9-0.4-1.7-0.9-2.9-0.9c-1.1,0-2.3,0.5-2.6,0.9c-0.3,0.4-0.8,2-2.1,2c-1.3,0-2.5-0.7-2.5,0.6     c0,1.3,0.7,0.8,0.8,1.8c0.2,1,0.6,1.9,1.5,2.1c0.9,0.2,2.2,0.1,1.8,1.4c-0.4,1.4-2.3,2.7-1.6,3.5c0.8,0.8,1,0.7,1.3,1.7     c0.3,1,0.3,1.1,1.1,1.1s0.6-1.2,1.9-1.2c1.3,0,0.3,2,1.9,2c1.6,0,3.7,0.5,4.3,2.1c0.1,0.4,0.1,0.8-0.5,0.8     c-1.2,0-1.9-0.4-2.6,0.3c-0.5,0.6-1,0.3-1.9,0.9c-0.2,0.2-0.6,0.4-0.9,0.8c-0.2,0.3-0.6,0.4-1,0.5c-0.8,0.2-1,0.5-1,1     c0,0.5,0.6,0.5,0.5,0.9c-0.1,0.4-0.4,0.8,0.8,0.8c1.2,0,1.6-0.1,1.6,0.8s-1.8,0.4-2.5,0.9c-0.7,0.5-4,0.4-4,1.7     c0,1.3,0.7,1.5,2.4,1.5c1.7,0,1.3,0.8,1.3,1.3c0,0.5-2.2,0.4-2.8,0.4c-0.6,0-1.6,0.2-1.8,1c-0.2,0.7-0.6,1.2-1.3,1.2     c-0.7,0-1.3,0-1.5,0.7c-0.4,1.6,0.2,2.4,1,3.2c0.8,0.8,1.8,0.2,2.5,0.9c0.7,0.7,1,1.3,1.8,1.6c0.8,0.3,2.2,0.5,2.2,1.2     c0,0.8,0.8,2,1.7,2c0.9,0,0.6,0.7,0.6,1.3c0,0.7-0.1,0.3-1.5,0.8c-1.4,0.4-3.1,0.2-3.1,1.1c0,0.8,0.9,1.1,2.2,1.1     c1.3,0,1.1,0.1,1.1,0.7c0,0.6-1.2,0.7-2.1,0.8c-0.5,0.1-1.8,0.4-2.5,0.7c-0.7,0.3-0.3,1.7,1.9,1.4c1.3-0.2,0.7-0.4,0.7,0.5     c0,0.8,0.6,1.1,1.4,1.1c0.9,0,1.2,0.8,1.2,1.2c0,0.5-0.4,1.2,0.9,1.8c0.6,0.3,2.1,0.2,2.5,0.3c0.4,0.1,1.2-0.1,2.4-0.7     c1.1-0.7,2-0.5,2.7,0.7c0.7,1.2-1.7,1.2-2,1.4c-0.3,0.2-1.1,0.4-1.5,0.7c-0.4,0.2-0.7,0.6-0.7,0.6s-0.4,0.4-0.9,0.8     c-0.8,0.8-0.4,0.9-0.3,1.2c0.2,0.3,0.6,0.9,1.5,0.3c0.9-0.5,1.4-0.3,1.6-0.1s0.1,0.5-0.2,0.7c-0.6,0.3-1.5,1.5-1.6,2c0,0,0,0,0,0     c-0.1,0.2-0.1,0.4,0.1,0.7c0.7,1.1,0.3,1.2-0.3,2c-0.6,0.7-0.3,2-1.1,2.3c-0.8,0.3-1.9,1.5-1.9,2.3c0,0.8,1,0.4,2,0     c1.1-0.4,2.1-0.4,2.1,0.2c0,0.6-1.5,1.7-3,1.7c-1.4,0-2.2,0.3-2.2,1.3c0,1,1.6,0.5,2.6,0.5c1,0,1.9-0.6,1.9,0.1     c0,0.8,0.4,1.1,1.7,1.1c1.3,0,2.4-0.5,2.8,0c0,0,0.4,1.2-0.3,2.1c0,0,0,0,0,0c-0.2,0.4-0.4,0.8-0.1,1.1c0.7,0.9,1.9,2.3,4.2,0.6     c0.4-0.3,0.8-0.6,1.2-1c-0.4,8.7-0.7,16.7-1.1,23.5l0,0c0,0,0-0.1-0.1-0.1c0-0.1-0.1-0.1-0.1,0c0,0,0,0,0,0c0,0-0.1,0-0.1,0     c-0.1,0-0.1-0.1-0.2-0.2c0-0.1-0.1-0.1-0.1-0.1c0,0,0,0,0,0l0,0c0,0,0,0,0,0c0,0,0,0,0,0c0,0,0.1-0.1,0.1-0.1c0,0,0,0,0-0.1     c0-0.1,0-0.1-0.1-0.1c0,0,0,0,0,0l0,0c-0.1,0-0.2,0.1-0.2,0.1l0,0l0,0v0c0,0,0,0,0,0c0,0,0.1-0.1,0.1-0.2c0-0.1,0-0.1-0.1-0.1     l0,0c0,0,0,0,0,0c0,0,0,0-0.1,0c0,0-0.1-0.1-0.1-0.1c0,0,0,0,0,0s0,0,0,0c0.1,0,0.1-0.1,0.1-0.2c0-0.1,0-0.1,0-0.1c0,0,0,0,0,0     c0.1-0.1,0.1-0.1,0.1-0.2c0-0.1,0-0.1,0-0.2c0,0,0,0-0.1,0c0,0-0.1,0.1-0.1,0.1c0,0,0,0.1-0.1,0.1c-0.1,0.1-0.1,0.1-0.2,0.1l0,0     c0,0-0.1,0-0.1,0s0,0,0,0c0.1,0,0.1-0.1,0.1-0.2c0-0.1,0-0.2-0.1-0.2c0,0,0-0.1-0.1-0.1c0,0-0.1,0.1-0.1,0.1l0,0.1c0,0,0,0-0.1,0     c0,0-0.1,0-0.1,0.1c0,0,0,0-0.1,0c0,0-0.1,0-0.1,0c0,0-0.1-0.1-0.1-0.1c0.2,0,0.3-0.2,0.4-0.3c0,0,0-0.1,0-0.1c0,0,0-0.1,0-0.1     c0,0,0,0,0,0c0,0,0,0-0.1,0.1c-0.1,0-0.1,0-0.2,0l0,0c0,0,0.1,0,0.1,0c0.1,0,0.2,0,0.2-0.1c0,0,0-0.1,0-0.1l0,0c0,0,0,0,0,0     c0.1,0,0.1,0.1,0.2,0.1c0.1,0,0.1-0.1,0.1-0.1c0,0,0-0.1,0-0.1c0,0,0-0.1-0.1-0.1c0,0,0-0.1,0-0.1c0-0.1,0-0.1,0-0.2     c0-0.1-0.1-0.1-0.1-0.1c-0.1,0-0.1,0.1-0.2,0.1c0,0,0,0,0,0s0,0,0-0.1c0-0.1,0-0.2,0-0.2c0,0-0.1,0-0.1,0c0,0,0,0-0.1,0     c0,0,0,0,0,0c-0.1-0.1-0.1-0.1-0.2-0.1c0,0,0,0,0,0c0,0,0,0,0,0c0,0,0-0.1,0.1-0.1c0.1,0,0.1-0.1,0.1-0.1c0,0,0-0.1,0,0l0,0     c0,0,0,0,0-0.1c0,0,0,0-0.1,0c0,0,0,0,0,0c0,0,0,0,0-0.1c0,0,0,0,0,0s0,0,0,0c0-0.1,0.1-0.1,0-0.3c0-0.1-0.1-0.2-0.1-0.2     c0,0,0,0-0.1,0.1c0,0,0,0,0,0c0,0,0,0-0.1,0.1c0,0,0,0-0.1,0c0,0,0,0,0,0s0,0,0,0c0,0,0.1,0,0.1-0.1c0,0,0-0.1,0-0.1c0,0,0,0,0,0     l0,0l0,0c0,0,0,0,0,0c0,0,0,0,0,0l0,0c0,0,0-0.1-0.1-0.1c0,0,0,0,0,0c0,0,0,0-0.1,0l0,0c0,0,0,0,0,0c0,0,0,0,0,0l0,0     c0,0,0,0,0.1,0c0,0,0.1,0,0.1-0.1c0,0,0,0,0-0.1c0,0,0,0,0,0l0,0c0,0-0.1,0-0.2-0.1c0,0,0,0,0,0c0,0,0,0,0,0c0,0,0,0,0,0h0     c0,0,0.1,0,0.1,0c0.1,0,0.2,0,0.2-0.1c0,0,0,0,0,0c0,0,0,0,0,0l0,0c0,0,0,0,0,0c-0.1,0-0.1,0-0.1,0l0,0c0,0,0,0,0.1,0     c0,0,0.1,0,0.1,0c0,0,0,0,0-0.1l0,0l0,0c0,0,0.1,0,0.1,0c0,0,0.1,0,0.1-0.1c0,0,0,0,0-0.1c0,0,0,0,0,0c0,0,0,0,0-0.1     c0,0,0,0,0-0.1c0,0,0-0.1-0.1-0.1c0,0,0,0-0.1,0c0,0,0,0,0,0l0,0c0-0.1,0-0.1,0-0.1c0,0,0,0,0,0h0l0,0c0,0,0,0,0,0c0,0,0,0-0.1,0     c0,0,0-0.1,0-0.1c0.2-0.5-0.1-0.5-0.2-0.2c0,0,0,0,0,0.1l0,0c0,0,0,0,0-0.1c0-0.1,0-0.1,0-0.2c0-0.2,0-0.3,0-0.3     c0,0-0.1-0.1-0.1,0c0,0,0,0-0.1,0c0,0,0,0,0,0c0.1,0,0.1-0.1,0.2-0.1c0.1-0.1,0.1-0.2,0-0.2c-0.1,0-0.1,0-0.1,0     c0,0,0-0.1-0.1-0.1c0,0,0,0,0,0c0,0,0,0,0-0.1c0.1,0,0.1-0.1,0-0.2c-0.1-0.1-0.1-0.1-0.1-0.1c0,0-0.1,0-0.2-0.1     c0-0.1-0.1,0-0.2,0c-0.1,0-0.2-0.1-0.3,0c-0.1,0.1-0.1,0.1-0.2,0.1c-0.1,0.1-0.1,0.2-0.1,0.2c0,0.1,0,0.1,0.1,0.1     c0,0-0.1,0.1-0.1,0.1c0,0-0.1,0-0.1,0c0-0.1-0.1-0.1-0.2,0c0,0.1-0.1,0.2-0.1,0.2c0,0.1,0,0.1,0.1,0.2c0,0,0,0,0,0.1     c0,0.1,0,0.1-0.1,0.1l0,0c0,0-0.1,0-0.1,0.1c0,0,0,0,0,0l0,0h0c0,0,0,0,0,0c0,0,0,0.1,0,0.1l0,0c0,0,0,0,0,0c0,0-0.1,0-0.1,0     c0,0-0.1,0-0.1,0.1c0,0,0,0.1,0,0.1c0,0,0,0.1,0,0.1c0,0,0,0,0,0c0,0,0,0.1,0,0.1c0,0,0,0.1,0.1,0.1c0,0,0.1,0,0.1,0l0,0l0,0     c0,0,0,0.1,0,0.1c0,0,0.1,0.1,0.1,0c0,0,0.1,0,0.1,0l0,0c0,0-0.1,0-0.1,0c0,0,0,0,0,0l0,0c0,0,0,0,0,0c0,0,0,0,0,0     c0,0.1,0.1,0.1,0.2,0.1c0,0,0.1,0,0.1,0h0c0,0,0,0,0,0l0,0c0,0,0,0-0.1,0.1c0,0,0,0,0,0c0,0,0,0,0,0c0,0,0,0,0,0c0,0-0.1,0-0.1,0     l0,0c0,0,0,0,0,0c0,0,0,0,0,0.1c0,0,0,0,0.1,0.1c0,0,0,0,0,0l0,0c0,0-0.1,0-0.1,0c0,0,0,0,0,0c0,0,0,0-0.1,0c0,0,0,0,0,0l0,0l0,0     c0,0,0,0,0,0c0,0,0,0.1,0,0.1c0,0,0,0,0.1,0.1c0,0,0,0,0,0s0,0,0,0c0,0,0,0-0.1,0l0,0l0,0l0,0c0,0,0,0,0,0c0,0,0,0.1,0,0.1     c0,0,0,0,0,0c0,0,0,0-0.1,0l0,0l0,0c0,0,0,0,0,0v0c0,0,0,0,0.1,0l0,0l0,0l0,0c0,0,0,0,0,0c0,0,0,0,0,0.1c0,0.1,0,0.1-0.1,0.1     c0,0,0,0-0.1,0h0c0,0,0,0-0.1,0c0,0,0,0.1,0,0.1l0,0c0,0,0,0,0,0c0,0,0,0.1,0.1,0.1c0.1,0,0.1,0.1,0.1,0.1c0,0,0,0.1,0,0.1     c0,0,0,0,0,0l0,0c0,0-0.1,0-0.1,0.1c0,0,0,0,0,0c0,0-0.1,0-0.2,0c0,0,0,0,0,0c0,0,0,0,0,0c0,0,0,0.1,0,0.1c0,0,0,0.1,0,0.1     c0,0,0,0,0,0l0,0c0,0,0,0,0,0.1c0,0,0,0,0,0.1c0,0,0,0,0,0c0,0,0,0,0.1,0.1c0,0.1,0,0.1,0,0.2v0c0,0,0,0,0,0     c-0.1-0.1-0.1-0.1-0.1-0.1c-0.1,0-0.1,0.1-0.1,0.1l0,0c-0.1,0.1,0,0.2,0.1,0.3l0,0c0,0-0.1,0-0.1,0c0,0,0,0,0,0     c-0.1,0-0.1,0.1-0.2,0.2c0,0.1-0.1,0.1-0.1,0.1l0,0c-0.1-0.1-0.2-0.1-0.3,0c-0.1,0.1,0,0.2,0,0.3c0,0,0,0.1,0.1,0.2     c0,0.2,0.1,0.3,0.1,0.3c0,0,0,0,0,0c0,0,0,0.1,0,0.1c0,0.1,0.1,0.2,0.1,0.2c0,0-0.1,0-0.1,0c-0.1,0-0.1-0.1-0.2-0.1     c0,0-0.1,0-0.1,0c-0.2,0-0.3,0-0.4,0.2c0,0.2,0,0.3,0.1,0.3c0,0,0.1,0.1,0.1,0.1l0,0c0,0,0,0.1,0.1,0.1l0,0c0,0,0,0-0.1,0     c0,0-0.1,0-0.1,0.1c0,0.1,0,0.2,0,0.3c0,0.1,0.1,0.1,0.1,0.2c0,0,0.1,0.1,0.2,0.1c-0.1,0.1-0.1,0.1-0.1,0.1     c-0.1,0.1-0.2,0.1-0.3,0.4c0,0.1-0.1,0.2-0.1,0.2c0,0,0-0.1,0-0.1c0-0.1-0.1-0.1-0.1-0.1c0,0,0,0,0,0c0,0-0.1,0-0.1,0     c0,0,0-0.1,0.1-0.1c0,0,0,0,0.1-0.1c0,0,0.1-0.1,0.1-0.1c0-0.1,0-0.1-0.1-0.2h0c0,0,0.1,0,0.1,0c0,0,0.1-0.1,0.1-0.2     c0-0.1,0-0.1,0-0.2c0,0,0-0.1-0.1-0.1c0,0-0.1,0-0.1,0.1c-0.1,0.1-0.3,0.2-0.3,0.1c0,0,0-0.1-0.1-0.1c0,0,0,0,0,0c0,0,0,0,0,0     c0-0.1,0-0.1-0.1-0.1c0,0,0,0,0,0c0,0,0,0,0,0c0,0,0,0,0,0c0,0,0,0,0-0.1c0-0.1,0.1-0.2,0.3-0.3c0.1-0.1,0.2-0.1,0.1-0.2     c0-0.1,0-0.1-0.1-0.1l0,0c0,0,0-0.1-0.1-0.1c0-0.1-0.1-0.1-0.1-0.1c0,0,0,0,0,0c0,0-0.1,0-0.1,0c-0.1,0-0.1-0.1-0.2-0.2     c0-0.1,0-0.1-0.1-0.1c0,0,0,0,0,0l0,0c0,0,0,0,0,0c0,0,0,0,0.1,0c0,0,0.1,0,0.1-0.1c0,0,0,0,0-0.1c0-0.1,0-0.1-0.1-0.1     c0,0,0,0-0.1,0l0,0c-0.1,0-0.2,0.1-0.2,0c0,0,0,0,0,0l0,0l0,0c0,0,0,0,0,0c0.1,0,0.1,0,0.1-0.2c0-0.1,0-0.1,0-0.1c0,0,0,0-0.1,0     l0,0c0,0,0,0-0.1,0c0,0-0.1-0.1-0.1-0.1c0,0,0,0,0,0s0,0,0,0c0.1,0,0.1-0.1,0.1-0.1c0-0.1,0-0.1,0-0.1c0,0,0,0,0,0     c0.1,0,0.2,0,0.3,0c0.1,0,0.2,0,0.2,0c0,0,0,0,0.1,0c0,0,0.1,0,0.1-0.1c0-0.1,0-0.1,0-0.2l0,0c0,0,0.1,0,0.1,0c0,0,0.1,0,0.1-0.1     c0-0.1,0-0.1,0-0.2c0,0,0-0.1,0-0.1c0,0-0.1,0-0.1,0c-0.1,0.1-0.3,0-0.3-0.1c0,0,0-0.1,0-0.1c0-0.1,0-0.1-0.1-0.2c0,0,0,0,0,0     s0,0,0.1-0.1c0.1-0.1,0.2-0.1,0.3-0.1c0.1,0,0.2-0.1,0.2-0.1c0-0.1,0-0.1-0.1-0.1c0,0,0,0,0,0c0,0,0-0.1,0-0.1     c0-0.1-0.1-0.1-0.1-0.1c0,0,0,0,0,0c0,0-0.1,0-0.1-0.1c-0.1-0.1-0.1-0.1-0.1-0.3c0,0,0,0,0,0c0,0,0,0,0,0c0,0,0-0.1-0.1-0.1     c0,0,0,0,0,0c0,0,0,0,0,0l0,0l0,0c0,0,0,0,0.1,0c0,0,0.1,0,0.1,0c0,0,0,0,0-0.1c0-0.1,0-0.1,0-0.1c0,0,0,0-0.1,0l0,0     c0,0,0-0.1,0-0.1c0-0.1,0-0.1-0.1-0.1c0,0,0,0,0,0c0,0,0-0.1,0-0.1c0,0,0-0.1,0-0.1c0,0,0-0.1,0-0.1c0,0,0,0-0.1,0.1     c0,0,0,0-0.1,0c0,0,0-0.1-0.1-0.1c0,0,0,0,0,0c0,0,0,0,0,0c0,0,0,0,0,0c0.1,0,0.1,0,0.1-0.1c0,0,0-0.1,0-0.1c0,0,0-0.1-0.1-0.1     c0,0,0,0,0,0c0,0,0,0,0,0c0,0,0-0.1-0.1,0l0,0c0,0,0-0.1,0-0.1c0,0-0.1,0-0.1,0c0,0,0,0,0,0c0,0,0,0,0,0c0,0,0,0,0,0     c0,0,0,0-0.1,0c0,0-0.1,0-0.1,0c0,0,0,0,0,0c0,0,0,0,0,0c0-0.1,0-0.1-0.1-0.1c0,0,0,0,0,0l0,0l0,0c0,0,0,0,0,0c0,0,0.1,0,0.1-0.1     c0,0,0,0,0-0.1c0,0,0-0.1-0.1-0.1c0,0,0,0,0,0l0,0c0,0-0.1,0.1-0.2,0l0,0l0,0l0,0l0,0c0,0,0,0,0.1,0c0,0,0.1,0,0.1-0.1     c0.1,0,0.2-0.1,0.2-0.2c0,0,0,0,0.1-0.1c0,0,0.1-0.1,0.1-0.1c0-0.1,0-0.1-0.1-0.1l0,0c0,0,0,0,0.1,0c0,0,0.1-0.1,0.1-0.1     c0-0.1,0-0.1,0-0.2c0,0,0-0.1-0.1-0.1c0,0-0.1,0-0.1,0.1c-0.1,0.1-0.2,0.1-0.3,0.1c0,0,0.1-0.1,0.1-0.1c0.2-0.1,0.1-0.3-0.1-0.3     c0,0-0.1,0-0.1,0c0-0.1,0-0.1,0.1-0.1c0,0,0,0,0,0c0.1-0.1,0.1-0.1,0.1-0.2c0-0.1,0-0.1-0.1-0.1l0,0c0.2-0.1,0.3-0.2,0.3-0.3     c-0.1-0.1-0.2-0.1-0.3-0.2c-0.1,0-0.2-0.2,0-0.2c0.2-0.1,0.2-0.2,0.1-0.4c-0.1-0.3-0.4,0.1-0.5,0.2c0,0-0.1,0.1-0.3,0.1     c0,0,0,0,0,0c0-0.1,0-0.1-0.1-0.1c0,0,0,0,0,0l0,0c0,0,0,0-0.1,0c0,0-0.1,0-0.1,0c0,0,0-0.1,0-0.1c0,0,0.1,0,0.1-0.1     c0,0,0,0,0-0.1c0.1-0.1,0.1-0.1,0.2-0.2c0.1-0.1,0-0.6-0.2-0.5c-0.2,0.1-0.4-0.2-0.5-0.4c0-0.1-0.1,0-0.2,0c0,0,0-0.1-0.1-0.1     c0,0,0,0-0.1,0l0,0c0,0,0-0.1-0.1-0.1c0-0.1-0.1-0.1-0.1-0.1c0,0,0,0-0.1,0c0,0,0-0.1,0-0.2c0-0.2,0-0.4,0-0.5     c0-0.1-0.1-0.1-0.1,0c-0.1-0.3-0.2-0.5-0.6-0.5c-0.3,0-0.3,0.3-0.3,0.6c0,0,0,0,0,0c0,0.2,0,0.4,0,0.4l0,0c0,0,0,0,0,0     c0,0,0,0-0.1,0c0,0,0,0,0,0c0,0,0,0,0,0c0,0,0,0-0.1,0.1c0,0,0,0.1,0,0.1c0,0,0,0.1,0.1,0.1c0,0,0,0,0,0s0,0,0,0     c0,0-0.1,0-0.1,0.1c0,0,0,0,0,0c0,0,0,0,0,0c0,0,0,0,0,0c0,0,0,0,0,0.1c0,0.1,0,0.1,0.1,0.1c0,0,0,0,0,0l0,0l0,0c0,0,0,0,0,0     c0,0-0.1,0-0.2,0l0,0c0,0,0,0,0,0c0,0,0,0,0,0.1c0,0,0,0,0,0c0,0,0,0,0.1,0c0,0,0,0,0,0c0,0,0,0,0,0l0,0c0,0,0,0,0,0     c0,0,0,0-0.1,0.1c0,0.1,0,0.1-0.1,0.2c0,0-0.1,0-0.1,0c0,0,0,0,0,0c0,0,0,0,0,0c0,0,0,0,0,0c0,0,0,0,0,0c0,0,0,0,0,0c0,0,0,0,0,0     c0,0,0,0,0,0.1c0,0,0,0,0,0c0,0,0,0,0,0c0,0,0,0,0,0.1c0,0,0,0,0,0c0,0,0,0,0,0c0,0,0,0,0,0c0,0,0,0-0.1,0.1c0,0,0,0.1,0,0.1     c0,0,0,0.1,0.1,0.1c0,0,0,0,0,0s0,0,0,0c0,0-0.1,0-0.1,0.1c0,0,0,0,0,0c0,0,0,0,0,0c0,0,0,0,0,0c0,0,0,0,0,0.1     c0,0.1,0,0.1,0.1,0.1c0,0,0,0,0,0.1c0,0,0,0,0,0c0,0-0.1,0-0.1,0l0,0c0,0,0,0,0,0c0,0,0,0,0,0.1c0,0,0,0,0,0c0,0,0,0,0.1,0     c0,0,0,0,0,0c0,0,0,0,0,0l0,0c0,0,0,0,0,0c0,0,0,0-0.1,0.1c0,0.1,0,0.1-0.1,0.2c0,0-0.1,0-0.1,0c0,0,0,0,0,0c0,0-0.1,0-0.1,0.1     c0,0,0,0.1,0,0.1l0,0c0,0-0.1,0-0.1,0.1c0,0,0,0.1,0.1,0.1c0.1,0,0.2,0.1,0.2,0.1c0,0,0,0,0,0.1l0,0c0,0-0.1,0.1-0.1,0.1     c0,0,0,0,0,0c0,0,0,0,0,0c0,0,0-0.1-0.1-0.1c0,0,0,0-0.1,0.1c0,0,0,0.1,0,0.1c0,0-0.1,0-0.1,0c0,0-0.1-0.1-0.1,0c0,0,0,0,0,0.1     c0,0,0,0.1,0,0.1c0,0,0,0,0,0c0,0,0,0-0.1,0c0,0,0,0.1,0,0.2c0,0.1,0.1,0.3,0.3,0.3c0,0,0.1,0,0.1,0c0,0,0,0.1,0,0.1     c0,0.1,0,0.1,0.1,0.1c0,0,0,0,0,0c0,0,0,0,0,0c0,0,0,0,0,0c0,0,0,0,0,0c0,0,0,0,0-0.1c0,0-0.1,0-0.1,0c0,0,0,0.1,0,0.1     c0,0.1,0,0.1,0.1,0.2c0,0-0.1,0-0.1-0.1c-0.1,0-0.1-0.1-0.2-0.1c0,0-0.1,0-0.1,0c-0.1,0-0.3,0-0.4,0.1c0,0.2,0,0.2,0.1,0.3     c0,0,0.1,0.1,0.1,0.1l0,0c0,0,0,0.1,0.1,0.1l0,0c0,0,0,0,0,0c0,0-0.1,0-0.1,0.1c0,0.1,0,0.2,0,0.2c0,0.1,0,0.1,0.1,0.1     c0,0,0.1,0,0.1,0.1c0,0,0,0,0,0c0,0,0,0-0.1,0.1c0,0.1,0,0.1-0.1,0.2c0,0-0.1,0-0.1,0c0,0,0,0,0,0c0,0-0.1,0-0.1,0.1     c0,0,0,0.1,0,0.1l0,0c0,0-0.1,0-0.1,0.1c0,0,0,0.1,0.1,0.1c0.1,0,0.1,0,0.2,0.1c0,0.1,0,0.1,0,0.1c0,0,0,0,0,0     c-0.1,0-0.1,0-0.2,0.1c-0.1,0-0.1,0-0.2,0.1c0,0.1-0.1,0.1-0.1,0.1c0,0-0.1,0-0.1,0c0,0,0,0-0.1,0c0,0,0,0-0.1,0     c0,0-0.1,0.1-0.1,0.1c0,0,0,0.1,0,0.1c0,0.1,0.1,0.1,0.1,0.1c0,0,0,0,0,0s0,0,0,0c-0.1,0-0.1,0.1-0.1,0.1c0,0,0,0.1,0,0.1     c0,0,0,0,0,0c0,0,0,0,0,0c0,0,0,0,0,0.1c0,0.1,0.1,0.1,0.1,0.1c0,0,0,0,0,0l0,0c0,0,0,0,0,0c0,0,0,0,0,0c-0.1,0-0.2,0.1-0.2,0.1     l0,0c0,0,0,0,0,0c0,0,0,0-0.1,0.1c0,0,0,0,0,0.1c0,0,0,0.1,0,0.1c0,0.1,0.1,0.1,0.1,0.1c0,0,0,0,0,0.1c0,0,0,0,0,0     c0,0-0.1,0.1-0.1,0.1c0,0,0,0.1,0,0.1c0,0,0,0,0,0c0,0,0,0,0,0c0,0,0,0,0,0.1c0,0,0,0,0,0c0,0,0,0,0,0c0,0,0,0,0,0c0,0,0,0,0,0     c0-0.1,0-0.2-0.1-0.2c0,0,0,0-0.1,0l0,0c-0.1,0-0.2,0-0.3-0.1c0,0,0,0,0,0c0,0,0,0,0.1-0.1c0.1,0,0.2,0,0.2-0.1c0,0,0,0,0,0     c0.1,0,0.1-0.1,0.2-0.1c0,0,0,0,0-0.1c0,0,0-0.1,0-0.1c0-0.1,0-0.1-0.1-0.1h0c0,0,0,0,0.1,0c0,0,0.1-0.1,0.1-0.1     c0-0.1,0-0.1,0-0.1c0,0,0-0.1-0.1-0.1c0,0,0,0-0.1,0.1c-0.1,0.1-0.2,0.1-0.3,0.1c0,0,0,0-0.1-0.1c0,0,0,0,0,0c0,0,0,0,0,0     c0-0.1,0-0.2,0-0.2c0,0,0,0,0,0c0,0,0.1-0.1,0.1-0.1c0.1-0.1,0.1-0.1,0.1-0.2c0,0,0-0.1-0.1-0.1l0,0c0,0,0-0.1,0-0.1     c0,0-0.1,0-0.1,0c0,0,0,0,0,0c0,0-0.1,0-0.1,0c-0.1,0-0.1,0-0.2-0.1c0-0.1,0-0.1-0.1-0.1c0,0,0,0,0,0l0,0c0,0,0,0,0,0     c0,0,0,0,0,0c0,0,0.1,0,0.1-0.1c0,0,0,0,0-0.1c0-0.1,0-0.1-0.1-0.1c0,0,0,0,0,0l0,0c0,0-0.1,0.1-0.2,0c0,0,0,0,0,0l0,0l0,0     c0,0,0,0,0,0c0,0,0.1,0,0.1-0.1c0-0.1,0-0.1,0-0.1c0,0,0,0,0,0l0,0c0,0,0,0,0,0c0,0-0.1-0.1-0.1-0.1c0,0,0,0,0,0s0,0,0,0     c0,0,0.1-0.1,0.1-0.1c0,0,0-0.1,0-0.1c0,0,0-0.1-0.1-0.1c0,0,0,0-0.1,0c0,0,0,0-0.1,0c0,0-0.1,0-0.1,0c0,0-0.1,0-0.1-0.1     c-0.1-0.1-0.1,0-0.2,0c-0.1,0-0.1,0-0.1,0c0,0,0,0,0,0c0,0,0-0.1-0.1-0.1c0,0,0.1,0,0.1,0c0,0,0.1,0,0.1,0c0,0,0.1,0,0.1-0.1     c0,0,0-0.1,0-0.1c0,0,0,0,0,0c0,0,0.1-0.1,0.3-0.2c0.1,0,0.1-0.1,0.2-0.1c0,0,0,0,0-0.1c0,0,0-0.1,0-0.1c0-0.1,0-0.1-0.1-0.1h0     c0,0,0,0,0.1,0c0,0,0.1-0.1,0.1-0.1c0-0.1,0-0.1,0-0.1c0,0,0-0.1-0.1-0.1c0,0,0,0-0.1,0.1c0,0-0.1,0.1-0.1,0.1     c-0.1,0-0.1,0-0.1-0.1c0,0,0-0.1,0-0.1s0,0,0.1,0c0.1,0,0.1,0,0.2-0.1c0-0.1,0-0.1,0-0.2v0h0l0,0c0,0,0.1,0,0.1,0     c0,0,0-0.1,0-0.1c0-0.1-0.1-0.2-0.2-0.2c0,0-0.1,0-0.1,0c0,0,0,0,0,0c0,0,0,0,0,0c0,0-0.1,0-0.1,0c0,0,0,0,0,0c0,0-0.1,0-0.1,0     c0,0,0,0,0,0c0,0-0.1-0.1-0.1-0.1c0,0,0-0.1-0.1-0.1c0,0,0,0,0,0l0,0c0,0,0,0,0,0c0,0,0,0,0,0c0,0,0.1,0,0.1-0.1c0,0,0,0,0-0.1     c0-0.1,0-0.1-0.1-0.1c0,0,0,0,0,0l0,0c0,0,0,0,0,0c0,0,0-0.1,0-0.1l0,0c0,0,0,0,0.1,0c0,0,0.1,0,0.1-0.1c0-0.1,0-0.1,0-0.2     c0,0,0-0.1,0-0.1c0,0-0.1,0-0.1,0c-0.1,0-0.1,0-0.2,0c0,0,0-0.1,0-0.1c0,0,0-0.1-0.1-0.1c0,0,0,0,0,0c0,0,0,0,0,0     c0-0.1,0-0.1-0.1-0.1c0,0,0,0,0,0s0,0,0.1-0.1c0.1-0.1,0.2-0.1,0.3-0.1c0.1,0,0.2-0.1,0.2-0.1c0-0.1,0-0.1-0.1-0.1c0,0,0,0,0,0     c0,0,0-0.1,0-0.1c0-0.1-0.1-0.1-0.1-0.1c0,0,0,0,0,0c0,0-0.1,0-0.1-0.1c-0.1-0.1-0.1-0.1-0.1-0.2c0-0.1,0-0.1,0-0.1c0,0,0,0,0,0     l0,0l0,0c0,0,0,0,0.1,0c0,0,0.1,0,0.1,0c0,0,0,0,0-0.1c0-0.1,0-0.1,0-0.1c0,0,0,0,0,0l0,0c-0.1,0-0.2,0-0.2-0.1l0,0l0,0l0,0     c0,0,0,0,0,0c0,0,0.1,0,0.1-0.1c0-0.1,0-0.1,0-0.1c0,0,0,0,0,0c0,0,0,0,0,0c0,0,0,0-0.1-0.1c0,0-0.1-0.1-0.1-0.1c0,0,0,0,0,0     s0,0,0,0c0.1,0,0.1,0,0.1-0.1c0,0,0-0.1,0-0.1c0,0,0-0.1-0.1-0.1c0,0,0,0-0.1,0c0,0,0,0-0.1,0c0,0-0.1,0-0.1,0     c-0.1,0-0.1-0.1-0.1-0.1c0,0,0-0.1,0-0.1c0,0,0,0,0,0c0,0,0,0,0-0.1c0-0.1,0-0.1,0-0.1c0,0,0,0,0,0l0,0c-0.1,0-0.2,0-0.2-0.1l0,0     l0,0l0,0c0,0,0,0,0,0c0,0,0.1,0,0.1-0.1c0-0.1,0-0.1,0-0.1c0,0,0,0,0,0c0,0,0,0,0,0c0,0,0,0-0.1-0.1c0,0,0,0,0,0c0,0,0,0,0,0     c0.1-0.1,0.1-0.1,0.1-0.1c0.1,0,0.1-0.1,0.2-0.3c0-0.1,0.1-0.1,0.1-0.1c0,0,0.1-0.1,0-0.2c-0.1-0.1-0.2-0.1-0.3,0l0,0     c0,0-0.1-0.1-0.1-0.1c-0.1-0.1-0.1-0.1-0.2-0.1c0,0,0,0,0,0c0,0-0.1,0-0.1,0l0,0c0.1,0,0.1-0.1,0.1-0.2l0,0c0,0,0-0.1-0.1-0.1     c0,0-0.1,0-0.1,0.1c0,0,0,0,0,0l0,0c0-0.1,0-0.1-0.1-0.3c-0.1-0.2-0.2-0.2-0.2-0.2c0,0,0,0,0,0c0-0.1,0-0.3-0.1-0.2c0,0,0,0,0,0     c0,0,0,0,0-0.1c0.1-0.1,0.1-0.2,0.1-0.3c-0.1-0.1-0.2-0.1-0.3-0.1l0,0c0,0,0,0,0-0.1c0-0.1,0-0.1,0-0.2c0,0,0,0-0.1,0l0,0     c0,0,0,0,0-0.1c0,0,0-0.1-0.1-0.1c0,0,0,0,0,0c0,0,0-0.1-0.1,0c0,0,0,0,0,0c0-0.1-0.1-0.1-0.1-0.1c0,0,0,0-0.1,0c0,0,0,0,0-0.1     c0,0,0.1-0.1,0.1-0.1c0.2-0.1,0.2-0.2,0.1-0.4c-0.1-0.2-0.3,0-0.4-0.1c0-0.1,0.2-0.2,0.2-0.3c0-0.1-0.1-0.2-0.2-0.1     c-0.1,0.1-0.2,0.1-0.3,0c-0.1-0.1-0.2-0.2-0.3-0.2c-0.1,0-0.3,0.1-0.2,0.2c0.1,0.1-0.1,0.1-0.2,0.1c-0.1,0-0.1,0.2,0,0.3     c0,0,0,0,0,0c0,0,0,0.1,0,0.1c0,0-0.1,0-0.2,0c-0.1,0.1-0.1,0.2-0.1,0.3c0,0.1,0.2,0.2,0.2,0.3c0.1,0.1,0,0.3-0.1,0.4     c0,0,0,0,0,0c0,0-0.1,0-0.1,0c-0.1-0.1-0.1-0.1-0.3-0.1c-0.2,0.1-0.1,0.3-0.1,0.3l0.1,0.1c0,0,0,0,0,0c-0.1,0-0.1,0.1-0.1,0.3     c0,0,0,0,0,0c0,0,0,0,0,0c0,0,0,0-0.1,0c0,0-0.1,0.1-0.1,0.1c-0.1,0.1,0,0.2,0,0.2l0,0c0,0,0,0,0,0c0,0,0,0,0,0     c-0.1-0.1-0.2-0.1-0.2,0c0,0.2,0,0.3,0.1,0.3c0.1,0,0.1,0.1,0,0.2c-0.1,0-0.2,0-0.2,0.1c0,0.1,0.1,0.2,0.3,0.2c0,0,0.1,0,0.1,0     l-0.3,0.1c0,0-0.2,0-0.1,0.2c0,0.1,0.1,0.1,0.1,0.1c0,0,0,0.1,0.1,0.1c0,0,0,0,0,0c0,0,0,0,0,0c-0.1,0-0.1,0.1-0.1,0.1l0,0     c0,0,0,0,0,0c-0.1,0-0.2,0-0.3,0c0,0,0,0-0.1,0c0,0,0,0,0,0l0,0c0,0,0-0.1-0.1-0.1c0,0,0,0-0.1,0.1c0,0.1-0.1,0.1-0.1,0.2     c0,0.1,0,0.1,0.1,0.1c0,0,0,0,0,0s0,0,0,0l0,0c-0.1,0-0.1,0-0.2-0.1c0,0,0,0-0.1-0.1c0,0,0-0.1-0.1-0.1c0,0-0.1,0-0.1,0     c0,0,0,0.1,0,0.1c0,0.1,0.2,0.2,0.3,0.3c0,0,0.1,0,0.1,0c0,0,0,0.1,0,0.1c0,0.1,0,0.1,0.1,0.1c0,0,0,0,0.1,0c0,0,0,0,0,0     c-0.1,0-0.1,0.2,0,0.3c0,0.1,0.1,0.1,0.2,0c0,0,0,0,0,0c0,0.1,0,0.1-0.1,0.1c-0.2,0-0.2,0.1-0.3,0.2c0,0.1,0,0.2,0.1,0.2     c0.1,0,0.1,0.1,0.1,0.2c0,0,0,0,0,0c0,0,0,0,0,0c0,0,0,0,0,0c0,0,0,0,0,0c-0.1,0.1-0.1,0.1-0.1,0.2c0,0,0,0,0,0c0,0,0,0,0,0     c0,0,0,0,0,0c0,0,0,0,0,0.1c0,0,0,0,0,0c0,0-0.1,0-0.1,0c0,0-0.1,0-0.1,0.1c0,0,0,0.1,0,0.1c0,0.1,0,0.1,0.1,0.1c0,0,0,0,0.1,0     c0,0,0.1,0,0.1,0.1l0,0c0,0,0,0,0,0.1c-0.1,0-0.3,0-0.4,0c-0.1,0-0.2,0.1-0.2,0.3c0,0.1,0.2,0.2,0.1,0.2c-0.1,0-0.3,0.1-0.2,0.3     c0,0.1,0.2,0.2,0.1,0.2c-0.1,0-0.1,0.2,0,0.3c0,0.1,0.2,0.1,0.3,0.1c0.1,0,0.1,0.1,0.2,0.2c0,0.1,0.1,0.1,0.2,0.1     c0,0,0,0.1,0,0.1c0,0,0,0,0,0c0,0,0,0-0.1,0c0,0,0,0,0,0.1c-0.2-0.1-0.5-0.3-0.6,0c-0.1,0.3,0,0.4,0.1,0.5c0,0-0.1,0-0.1,0     c0,0,0,0.1,0,0.2c-0.1-0.1-0.3-0.1-0.3,0c0,0,0,0-0.1,0c0,0.1,0,0.1,0,0.2c0,0.1,0,0.1,0,0.1c0,0-0.1,0.1-0.1,0.1     c0,0.1,0,0.1,0,0.1c0,0,0.1,0.1,0.2,0.1c0,0,0.1,0,0.1-0.1c0,0,0,0,0,0c0,0.1,0.1,0.2,0.3,0.2c0,0,0,0,0,0c0,0,0,0,0,0     c-0.1,0-0.1,0-0.1,0c0,0,0,0,0,0c0,0-0.1,0-0.1,0.1c0,0,0,0.1,0,0.1c0,0,0,0,0.1,0c0,0-0.1,0-0.1,0c0,0,0-0.1-0.1-0.1     c0,0,0,0-0.1,0.1c0,0,0,0.1,0,0.1c-0.1,0-0.2,0.1-0.2,0.2c0,0,0,0,0-0.1c0,0,0-0.1-0.1-0.1c0,0-0.1,0-0.1,0c0,0,0,0.1,0,0.1     c0,0.1,0.2,0.2,0.3,0.3c0,0,0,0,0,0c0,0,0,0,0.1,0c0,0,0,0,0,0.1c0,0.1,0,0.1,0.1,0.1c0,0,0,0,0.1,0l0,0c0,0-0.1,0.1-0.1,0.1     c0,0,0,0,0,0c0,0,0,0,0,0c0,0-0.1,0-0.1,0c0,0-0.1,0-0.1,0c0,0-0.1,0-0.1,0c-0.1,0-0.1,0-0.1,0.1c0,0-0.1,0.1,0,0.2     c0,0.1,0.1,0.1,0.2,0.1c0,0,0,0,0,0s0,0-0.1,0c-0.1,0-0.1,0.1-0.2,0.1c0,0-0.1,0-0.1,0c0,0,0,0,0,0c0,0,0,0-0.1,0     c0,0-0.1,0-0.1,0.1c0,0.1,0.1,0.1,0.1,0.2c0,0,0.1,0,0.1,0l0,0l0,0c0,0,0,0,0,0c-0.1,0-0.2,0-0.3,0l0,0c0,0,0,0-0.1,0     c0,0-0.1,0-0.1,0.1c0,0,0,0,0,0.1c0,0.1,0.1,0.1,0.1,0.1c0,0,0.1,0,0.1,0c0,0,0,0,0,0l0,0c0,0,0,0,0,0c0,0-0.1,0-0.1,0.1     c-0.1,0.1-0.1,0.2-0.2,0.2c-0.1,0-0.1,0-0.2,0c0,0,0,0,0,0c0,0,0-0.1,0-0.1c0,0,0,0-0.1,0c0,0,0,0,0,0c0,0,0-0.1-0.1-0.1     c0,0,0,0-0.1-0.1c0,0,0.1,0,0.1-0.1c0,0,0-0.1,0-0.1c0,0,0-0.1,0-0.1c0,0,0,0,0,0c0,0,0,0-0.1,0c0,0,0,0,0,0c0,0,0,0,0-0.1     c0,0,0,0,0.1,0c0,0,0,0,0,0c0,0,0,0,0.1,0c0.1,0,0.1,0,0.2-0.1c0,0,0,0,0,0c0,0,0.1,0,0.1,0c0.1,0,0.2,0,0.2-0.1c0,0,0-0.1,0-0.1     c0,0,0-0.1-0.1-0.1c0,0,0-0.1,0-0.1c0,0,0-0.1,0-0.1c0-0.1-0.1-0.1-0.1-0.1c-0.1,0-0.1,0-0.2,0.1c0,0,0,0,0,0s0,0,0-0.1     c0-0.1,0-0.2,0-0.2c0,0-0.1,0-0.1-0.1c0,0-0.1,0-0.1,0c0,0,0,0,0,0c-0.1-0.1-0.2-0.1-0.2-0.1c0,0,0,0,0,0c-0.1,0-0.2-0.1-0.2-0.2     c0-0.2-0.1-0.2-0.2-0.2c0,0,0,0,0,0c0,0,0,0,0,0c0,0,0.1-0.1,0.1-0.1l0,0c0,0,0.1-0.1,0.1-0.1c0,0,0.1-0.1,0-0.1     c0,0,0-0.1-0.1-0.1c0,0-0.1,0-0.1,0.1c0,0-0.1,0.1-0.2,0c0,0,0.1-0.1,0.1-0.1c0.1-0.1,0.1-0.2,0.1-0.2c0,0,0-0.1-0.1,0     c0,0-0.1,0-0.2,0.1c0,0,0.1-0.1,0.1-0.1c0-0.1-0.1-0.1-0.1-0.1h0l0,0c0,0,0-0.1,0-0.1c0,0,0-0.1-0.1-0.1h0l0,0c0,0,0,0,0,0h0     c0,0,0,0,0,0l0,0c0,0,0,0,0,0c0,0,0,0,0.1,0c0.1,0,0.1,0,0.2,0c0,0,0.1,0,0.1,0c0.1,0,0.1,0,0.2,0c0,0,0,0,0-0.1     c0-0.1,0-0.1-0.1-0.1h0l0,0l0,0c0,0,0,0,0,0c0,0,0.1,0,0.1-0.1c0.1-0.1,0.1-0.2,0.1-0.2v0c0,0,0.1-0.1,0.1-0.1c0,0,0,0,0.1,0     c0,0,0.1,0,0.1-0.1c0,0,0-0.1,0-0.1c0,0,0-0.1-0.1-0.1c0,0,0,0-0.1,0c0,0,0,0-0.1,0c0,0,0,0-0.1,0c-0.1,0-0.1,0-0.2,0     c0,0,0.1-0.1,0-0.1c0-0.1-0.1-0.1-0.1-0.1c0,0-0.1,0-0.1,0l0,0c0,0,0,0,0,0c-0.1,0-0.2,0-0.3-0.1l0,0c0,0,0,0,0-0.1     c0,0,0-0.1,0-0.1c-0.1-0.1-0.1-0.1-0.2-0.1l0,0c0,0,0,0,0,0c0,0,0,0,0-0.1c0,0,0,0,0,0c0-0.1-0.1-0.1-0.1-0.2l0,0     c0.1,0,0.2,0,0.4-0.1c0.1,0,0.1,0,0.2,0c0,0,0.1,0,0.1,0c0.1,0,0.1-0.1,0.1-0.1c0,0,0-0.1,0-0.1c0,0,0.1,0,0.1,0c0,0,0,0,0-0.1     c0,0,0-0.1,0-0.1l0,0c0,0,0,0,0.1,0c0,0,0.1,0,0.1-0.1c0,0,0-0.1,0-0.1c0,0,0,0,0.1,0c0.1,0,0.2-0.1,0.3-0.2c0-0.1,0-0.1,0-0.1     c0,0,0,0-0.1,0c0,0-0.1,0-0.1,0.1c0,0,0,0.1-0.1,0.1c-0.1,0-0.1,0-0.2,0l0,0c0,0,0,0,0,0l0,0c0,0,0.1-0.1,0.1-0.1     c0-0.1,0-0.1,0-0.2c0,0,0,0-0.1,0c0,0,0,0-0.1,0.1l0,0c0,0,0,0,0,0c0,0-0.1,0-0.1,0c0,0-0.1,0-0.2-0.1l0,0c0-0.1,0-0.1-0.1-0.1     c0,0,0,0,0,0c0,0,0,0,0,0c0.2-0.1,0.4-0.3,0.3-0.4c-0.1-0.2-0.5,0.1-0.6-0.1c0,0,0,0,0-0.1c0.1-0.1,0.2-0.2,0.2-0.2     c0,0,0-0.1,0-0.1c0,0-0.1-0.1-0.1-0.1c0,0,0,0,0,0c0,0,0.1-0.1,0.1-0.1c0.4-0.2,0.3-0.4,0.2-0.5c-0.1-0.1-0.6,0-0.8-0.3     c-0.1-0.3,0.3-0.7,0.1-1.1c-0.2-0.4-0.4-0.4-0.4-0.4c0,0-0.1,0.1-0.1,0.1l0,0c0,0,0,0-0.1,0c0,0,0-0.1,0-0.1c0,0,0,0,0,0     c0-0.1,0-0.2-0.1-0.2c0,0-0.1,0-0.1-0.1c0,0-0.1-0.1-0.1-0.1l-0.1,0c0,0,0-0.1,0-0.1c0,0,0,0-0.1,0c-0.1,0-0.1,0.2-0.1,0.2     c0,0.3-0.1,0.2-0.1,0.3c-0.2-0.2-0.3-0.1-0.4-0.1c-0.1,0.1-0.3,0.2-0.1,0.6c0.2,0.4-0.2,0.4-0.2,0.4s-0.1,0.2-0.1,0.4     c0,0,0,0,0.1,0c0,0,0,0,0,0c0,0,0,0.1,0,0.1c0,0,0,0,0,0c0,0-0.2,0-0.2,0.1c0,0.1,0,0.2,0.1,0.3c0,0.1,0.1,0.1,0.1,0.2     c0.1,0.1,0.1,0.1,0.1,0.2c0,0,0,0,0,0c0,0,0,0,0,0c0,0-0.1,0-0.1-0.1c0,0-0.1-0.1-0.1-0.1c0,0-0.1,0-0.2,0.2     c0,0.1-0.1,0.2-0.1,0.2c0,0,0,0,0,0c0,0,0,0,0,0c-0.1,0-0.1,0-0.1-0.1c0,0-0.1,0-0.1,0.1l0,0c0,0.1,0,0.1,0.1,0.2l0,0     c0,0-0.1,0-0.1,0c0,0,0,0,0,0c-0.1,0-0.1,0-0.2,0.1c0,0-0.1,0.1-0.1,0.1l0,0c-0.1-0.1-0.2-0.1-0.2,0c-0.1,0.1,0,0.1,0,0.2     c0,0,0,0.1,0.1,0.1c0,0.2,0.1,0.3,0.2,0.3c0,0,0.1,0,0.1,0.1c0,0.1,0.1,0.1,0.2,0.1c0,0,0,0,0,0c0,0,0,0,0,0     c-0.1,0.1-0.1,0.2,0,0.3c0,0.1,0,0.1,0,0.1c0,0,0,0,0,0c-0.1,0-0.1,0-0.1,0.1c0,0,0,0.1-0.1,0.1l0,0c0,0,0,0-0.1,0     c-0.1,0-0.1,0.1-0.1,0.1c0,0,0,0.1,0,0.1l0,0c0,0,0,0-0.1,0c0,0,0,0.1,0,0.1c0,0,0,0.1,0,0.1c0,0,0,0,0,0c0,0-0.2,0-0.2,0.1     c0,0.1,0,0.2,0.1,0.3c0,0.1,0.1,0.1,0.1,0.2c0.1,0.1,0.1,0.2,0.1,0.2c0,0,0,0,0,0c0,0-0.1,0-0.1-0.1c0,0-0.1-0.1-0.1-0.1     c0,0-0.1,0-0.2,0.2c0,0.1-0.1,0.2-0.1,0.2c0,0,0,0,0,0c0,0,0,0,0,0c-0.1,0-0.1,0-0.1-0.1c0,0-0.1,0-0.1,0.1l0,0     c0,0.1,0,0.1,0.1,0.2l0,0c0,0-0.1,0-0.1,0c0,0,0,0,0,0c-0.1,0-0.1,0-0.2,0.1c0,0-0.1,0.1-0.1,0.1l0,0c-0.1-0.1-0.2-0.1-0.2,0     c-0.1,0.1,0,0.1,0,0.2c0,0,0,0.1,0.1,0.1c0,0.2,0.1,0.3,0.2,0.3c0,0,0.1,0,0.1,0.1c0,0,0,0,0,0c0,0-0.1,0-0.1,0c0,0,0,0-0.1,0     c0,0,0,0-0.1,0c0,0-0.1,0.1-0.1,0.1c0,0,0,0.1,0,0.1c0,0.1,0.1,0.1,0.1,0.1c0,0,0,0,0,0s0,0,0,0c0,0-0.1,0.1-0.1,0.1     c0,0,0,0.1-0.1,0.1c0,0,0,0,0,0c0,0,0,0,0,0c0,0,0,0,0,0.1c0,0,0,0,0,0c0,0,0,0,0,0c0,0,0,0.1,0,0.1c0,0,0.1,0,0.1,0l0,0     c0,0-0.1,0-0.1,0l0,0c0,0,0,0,0,0c0,0,0,0,0,0.1c0,0,0,0,0,0.1c0,0,0,0,0,0c0,0,0,0,0,0.1c-1.8-11-4.8-29-5.7-33     c0.5-0.5,1-0.9,1.2-1.1c1-0.9,1.7-1.5,2.2-1.5c0.4,0,1.3,0.3,2.1,0.7c1.2,0.6,3.1,1.6,4.7,2.3c0.6,0.3,1.2,0.4,1.7,0.6     c1.1,0.4,2.3,0.7,2.5,0.8c0.2,0.1,1.2,0.2,1.5-0.3c0.1-0.2-0.2-0.4-0.5-0.6c0,0,0,0,0,0c0,0-0.1-0.1-0.3-0.2     c-0.1-0.1-0.5-0.3-0.8-0.5c-0.7-0.4-1.6-0.9-2.5-1.4c-0.5-0.3-0.9-0.5-1.2-0.7c0.6-0.5,1.6-1.2,2.3-1.2c0.6,0,1.8,0.6,2.5,0.8     c2.1,0.6,3.2,0.9,3.9,1c0.4,0.1,0.8,0.2,0.9,0.2c0.2,0,0.8,0.2,0.9,0c0.1-0.3-0.5-0.5-0.7-0.6c0,0-4.6-2.1-6-2.8     c-0.8-0.4-1.1-0.6-1.5-0.6c-0.3,0-0.6,0-1.1,0.4c-1.3,0.9-2.7,1.8-2.8,1.8c0,0,0,0-0.1,0.1c-1.3-0.7-2.2-1.3-2.2-1.3     c-0.7-0.5-1.1-0.7-1.3-0.8c-0.3-0.1-1.3-1-2-0.9c-0.7,0-1.5,0.9-2.1,1.4c-0.4,0.3-1.2,1-2,1.7l-2.2-7.9c0,0-6.1-26.4-6.3-27.4     c-1.2-9.2-8-8.5-10.7-9.9c-1.7-0.9-13.6-7.3-22.5-12.1c-0.6,1.5-1.2,3-1.7,4.5c6.1,2.8,13.1,6.1,15.4,7.9     c3.1,2.4,6.8,3.5,9.7,3.9c3,0.4,4.8,1.9,5.1,4c0.3,2.1,3.5,15.4,5,23.9c1.4,8.5,4,14.4,6.4,25.4c2.3,10.9,2,13.9,3,17.6     c0.9,3.7,1.8,13.9,1.8,13.9c-0.9-3.2-2.9-8.1-4-8.7c-1-0.7-3.2-8.7-4.1-12.3c-0.9-3.6-1.3-4.7-1.9-5.1c-1.4-0.7-1.6-2.2-1.6-2.2     s-0.6-4.1-1.7-9.3c-0.6-2.7-2-7.6-3.5-12.3l0,0l-2.2-8.4c0,0-0.6-1.6-0.6-1.8c-0.2-0.5-0.3-1.3-0.6-1.3c-0.2,0-0.1,0.7-0.1,1     c0,0.1,0.2,0.9,0.4,1.9c0.6,3.4,1.6,9.4,2.6,15c1.2,7,3.2,21.6,3.2,21.6l-4.8-18.2c0.3,1.4-0.3-1.8-2.1-7.8     c-0.2-0.5-1.3-3.4-1.3-3.4L29,96.8l0,0l-0.9-3.1c0,0-0.5-1.6-0.6-1.8c-0.2-0.4-0.4-1.4-0.6-1.3c-0.2,0.1-0.1,0.7-0.1,1     c0.1,0.2,0.6,3.1,0.9,5c1.6,10.3,4.5,25.5,3.4,25.6c-1.3,0.1-1.1,2-1.1,2s0.1,1,1,6.8c0.9,5.8,1.9,8.6,0.9,10.5     c-1,1.9-0.4,7-0.4,7c-3.7-8.7-5.5-27.9-7-28.1c-1.5-0.2-1.9-3.2-1.9-3.2l-2.1-8.3c0,0-6.6-23.5-9-26.7c-1.4-1.9,0.6,3.5,0,5.7     c-0.5,2.2,0.9,5,1.7,11.9c0.1,0.7-5-7.8-5.3-8.4C6.6,88.5,5.2,85.5,4,83c-0.4,3.5-0.6,7-0.6,10.6c0,51.9,40.6,94.3,91.7,97.2     c0-0.2,0.1-0.3,0.1-0.4c0.1-0.3,0.3-0.7,0.4-1.2c0.2-0.9,0.5-1.9,0.5-1.9l0.6-2.3l0,0c0.1-0.5,0.1-0.9,0.2-1.4     c0.1-0.7,0.1-1.3,0.2-2c0.1-1.3,0-1.6,0-2.9c0-0.3,0.1-1.5,0.2-1.8L97.5,174.7z M77.8,148.3C77.8,148.3,77.8,148.3,77.8,148.3     C77.8,148.3,77.8,148.3,77.8,148.3C77.8,148.3,77.8,148.3,77.8,148.3C77.8,148.3,77.8,148.3,77.8,148.3L77.8,148.3z M63.6,147.7     L63.6,147.7L63.6,147.7L63.6,147.7z M103.7,51.9c0.3,0,0.5,0,0.6-0.1c0.1-0.1,0.2-0.3,0.2-0.4c0-0.1,0-0.1,0-0.2     c0.1-0.1,0.2-0.1,0.2,0.2l0.2,7.9c0,0,0,0-0.1,0c-0.1,0-0.3,0-0.5,0c-0.3-0.1-0.5-0.2-0.6-0.4c-0.2-0.2-0.3-0.3-0.5-0.3l-0.1-6.8     C103.2,51.9,103.6,51.9,103.7,51.9z M105.6,100.6c-0.1,0-0.3-0.2-0.4-0.3c-0.1-0.1-0.3-0.3-0.6-0.4c-0.1,0-0.2-0.1-0.2-0.1     c0,0,0.1,0,0.2-0.1c0.3-0.1,0.6-0.1,0.7-0.3c0.1-0.2,0-0.4,0-0.5c-0.1-0.1-0.2-0.3-0.4-0.3c-0.1,0-0.2,0-0.3,0     c-0.1,0-0.2,0-0.3,0c-0.1,0-0.3,0-0.5,0c-0.3-0.1-0.5-0.2-0.6-0.4c-0.1-0.1-0.1-0.1-0.2-0.2l0-15c0.3,0,0.5-0.2,0.6-0.5l0.1,0     c0.1,0,0.1,0,0.1,0c0.1,0,0.2,0.1,0.2,0.1c0.2,0,0.4,0,0.6-0.1c0.1-0.1,0.5-0.2,1-0.7l0.3,17.1l0.1,1.9     C105.9,100.9,105.8,100.8,105.6,100.6z M111.9,157.8C111.9,157.8,111.9,157.8,111.9,157.8C111.9,157.8,111.9,157.8,111.9,157.8     C111.9,157.8,111.9,157.8,111.9,157.8z"/>
		</g>
		<g>
			<path class="st0" d="M147.5,140.5C147.5,140.5,147.5,140.5,147.5,140.5C147.5,140.5,147.5,140.5,147.5,140.5     C147.5,140.5,147.5,140.5,147.5,140.5C147.5,140.5,147.5,140.5,147.5,140.5z"/>
			<path class="st0" d="M147.5,140.5C147.5,140.5,147.5,140.5,147.5,140.5C147.5,140.5,147.5,140.5,147.5,140.5z"/>
			<path class="st0" d="M111.8,157.8C111.9,157.8,111.9,157.8,111.8,157.8C111.9,157.8,111.9,157.8,111.8,157.8     C111.9,157.8,111.9,157.8,111.8,157.8z"/>
			<path class="st0" d="M147.3,140.4C147.3,140.4,147.3,140.4,147.3,140.4C147.3,140.4,147.3,140.4,147.3,140.4z"/>
			<polygon class="st0" points="77.8,148.3 77.8,148.3 77.8,148.3 77.8,148.3 77.8,148.3    "/>
			<polygon class="st0" points="63.6,147.7 63.6,147.7 63.6,147.7    "/>
		</g>
	</g>
	<g id="group-sc">
		<g id="sierra">
			<g>
				<path d="M221.7,77.4l7-9c3.8,3.7,8.8,8,15.2,8c6.2,0,10.2-4.3,10.2-9.7v-0.1c0-4.1-1.9-7.3-11.5-13      c-12.4-7.2-17.9-13.1-17.9-22.9v-0.2c0-11.8,8.8-20.3,21.7-20.3c6.2,0,13.6,2.3,19.5,8.3l-7.1,8.9c-3.3-3.3-7.7-6.5-12.9-6.5      c-5.6,0-9.5,3.7-9.5,8.5v0.1c0,4.5,2,7.5,13,14.2c11.8,7.1,16.4,13,16.4,22.4v0.2c0,12.2-9.5,20.9-21.8,20.9      C236.6,87,228.8,84.5,221.7,77.4z"/>
			</g>
			<g>
				<path d="M280.2,10.9h11.5v75.3h-11.5V10.9z"/>
			</g>
			<g>
				<path d="M308.4,10.9h38v10.8h-26.5V43h23.6v10.6h-23.6v21.8h26.9v10.8h-38.4V10.9z"/>
			</g>
			<g>
				<path d="M361,10.9h20c7.7,0,14.2,2.3,18.5,6.6c3.9,3.9,6.1,9.7,6.1,17V35c0,11.1-5.5,17.9-12.9,21.2l14.6,30h-13l-13-27.1      c-0.5,0.1-1,0.1-1.4,0.1h-7.3v27H361V10.9z M379.4,48.8c10.1,0,14.6-5.5,14.6-13.7c0-9-5.2-13.5-14.1-13.5h-7.3v27.2H379.4z"/>
			</g>
			<g>
				<path d="M420.2,10.9h20c7.7,0,14.2,2.3,18.5,6.6c3.9,3.9,6.1,9.7,6.1,17V35c0,11.1-5.5,17.9-12.9,21.2l14.6,30h-13l-13-27.1      c-0.5,0.1-1,0.1-1.4,0.1h-7.3v27h-11.6V10.9z M438.6,48.8c10.1,0,14.6-5.5,14.6-13.7c0-9-5.2-13.5-14.1-13.5h-7.3v27.2H438.6z"/>
			</g>
			<g>
				<path d="M493.2,10.6h11.7l21.6,75.6h-11.9l-4.7-17.3h-22.1l-4.6,17.3h-11.5L493.2,10.6z M507,58.5l-8.2-30.2l-8.3,30.2H507z"/>
			</g>
		</g>
		<g id="club">
			<g>
				<path d="M222.6,139.1v-1.5c0-24.4,12-37.7,27.8-37.7c7.4,0,12.8,2.8,17.1,6.9l-6.6,9.2c-3-2.9-6.5-5.1-10.7-5.1      c-8.8,0-15.8,9.7-15.8,27.1v0.5c0,18.3,7.3,27.2,15.6,27.2c4.5,0,8-2.1,11.4-5.6l6.2,8.9c-5.2,4.9-11.1,7.7-18.1,7.7      C233.4,176.8,222.6,163.6,222.6,139.1z"/>
			</g>
			<g>
				<path d="M280.1,100.7h11.6v64.5h24.1V176h-35.7V100.7z"/>
			</g>
			<g>
				<path d="M322.6,150.8v-50.1h11.6v50.7c0,10,4.5,14.9,11.6,14.9c7.1,0,11.6-4.8,11.6-14.8v-50.8H369v50      c0,17.5-9.4,26.3-23.2,26.3C332,177,322.6,168.2,322.6,150.8z"/>
			</g>
			<g>
				<path d="M383,100.7h19.1c7.9,0,14.5,2,18.7,6.3c3.3,3.2,5.1,7.4,5.1,12.7v0.4c0,9.7-5.6,14.5-11.4,17.1      c7.7,2.7,13.6,7.6,13.6,17.6v0.5c0,13.2-10.3,20.5-25.7,20.5H383V100.7z M414.4,121.8c0-6.8-4.5-10.5-12-10.5h-8V133h7.3      c7.9,0,12.7-4,12.7-11.1V121.8z M402.9,143h-8.5v22.5h8.7c8.1,0,13.4-4,13.4-11.1v-0.1C416.6,147.3,411.5,143,402.9,143z"/>
			</g>
		</g>
	</g>
</g>
</svg>